<?xml version="1.0" standalone="no"?>
<!DOCTYPE svg PUBLIC "-//W3C//DTD SVG 20010904//EN"
 "http://www.w3.org/TR/2001/REC-SVG-20010904/DTD/svg10.dtd">
<svg version="1.0" xmlns="http://www.w3.org/2000/svg"
 width="1410.000000pt" height="510.000000pt" viewBox="0 0 1410.000000 510.000000"
 preserveAspectRatio="xMidYMid meet">

<g transform="translate(0.000000,510.000000) scale(0.100000,-0.100000)"
fill="#000000" stroke="none">
<path d="M0 2550 l0 -2550 4370 0 4370 0 0 410 c0 397 1 411 20 430 20 20 33
20 1150 20 l1129 0 21 -22 c19 -21 20 -33 20 -430 l0 -408 200 0 200 0 0 410
c0 397 1 411 20 430 20 20 33 20 1310 20 l1290 0 0 185 0 185 -830 0 c-817 0
-830 0 -850 20 -20 20 -20 33 -20 1605 l0 1586 25 24 24 25 826 0 825 0 0 305
0 305 -1050 0 -1050 0 0 -540 0 -541 -25 -24 -24 -25 -1581 0 -1581 0 -24 25
-25 24 0 541 0 540 -4370 0 -4370 0 0 -2550z m8315 1505 l25 -24 0 -1586 c0
-1572 0 -1585 -20 -1605 -20 -20 -33 -20 -1148 -20 -1122 0 -1128 0 -1150 20
l-22 21 0 1585 0 1585 25 24 24 25 1121 0 1121 0 24 -25z m3661 -510 l24 -24
-2 -1130 c-3 -1117 -3 -1130 -23 -1145 -18 -14 -207 -15 -1606 -16 -1582 0
-1585 0 -1607 20 l-22 21 0 1125 0 1125 25 24 24 25 1581 0 1581 0 25 -25z"/>
<path d="M6082 3874 l3 -127 155 -58 c85 -31 310 -115 500 -185 190 -70 351
-129 358 -131 9 -4 12 54 12 271 l0 276 75 0 75 0 0 -304 0 -303 133 -48 c72
-26 152 -56 176 -67 60 -25 64 -23 35 19 -64 95 -70 225 -16 336 33 67 60 93
137 138 34 20 54 23 140 24 93 0 104 -2 150 -29 97 -56 154 -138 177 -253 20
-101 -23 -245 -95 -311 -13 -13 -49 -33 -79 -46 l-55 -22 148 -52 149 -51 0
524 0 525 -1090 0 -1091 0 3 -126z"/>
<path d="M6080 3470 c0 -138 2 -160 15 -160 50 0 789 -221 1020 -304 11 -4 -7
8 -40 27 -33 19 -76 45 -95 56 -19 12 -84 50 -145 84 -60 35 -184 110 -275
166 -91 57 -212 132 -270 166 -58 34 -129 76 -157 93 l-53 31 0 -159z"/>
<path d="M6081 2918 c1 -200 4 -353 6 -340 4 20 10 22 59 22 46 0 54 3 54 19
0 14 6 17 25 13 14 -2 25 0 25 6 0 6 -9 12 -20 14 -18 3 -18 4 5 15 14 6 23 7
20 3 -3 -5 3 -14 14 -19 15 -8 20 -8 23 3 2 8 10 11 22 7 16 -6 15 -9 -12 -22
-21 -10 -28 -19 -23 -28 5 -7 11 -12 15 -12 20 3 26 -4 47 -56 12 -32 28 -61
33 -65 6 -4 11 -15 11 -25 0 -27 37 -117 52 -126 7 -5 11 -12 8 -17 -5 -9 30
-89 44 -100 21 -17 -4 -130 -28 -130 -5 0 -30 24 -55 52 l-46 53 -1 -60 c0
-33 -2 -70 -5 -82 -5 -27 4 -29 32 -8 24 18 68 19 83 2 8 -11 -2 -19 -50 -42
-63 -29 -73 -39 -67 -75 3 -19 9 -16 66 29 34 28 62 48 62 45 0 -10 -30 -63
-79 -136 l-49 -75 -8 -152 c-4 -92 -3 -151 3 -151 5 0 20 17 33 39 24 36 29
39 86 45 99 10 123 -5 147 -94 9 -30 22 -73 30 -95 16 -43 12 -58 -24 -90 -15
-14 -23 -16 -26 -7 -3 6 -19 12 -37 12 -31 0 -32 -1 -34 -52 -1 -28 2 -54 7
-57 5 -4 12 -18 16 -33 5 -21 2 -29 -14 -38 -27 -14 -31 -90 -4 -90 9 0 14 -3
10 -6 -3 -3 -33 -3 -66 1 -56 6 -61 9 -61 31 0 21 -5 24 -35 24 -44 0 -45 -7
-2 -19 l32 -9 -42 -1 -43 -1 0 -44 c0 -51 -4 -48 110 -67 41 -7 80 -16 86 -20
6 -5 144 -8 308 -8 l297 0 -7 22 c-9 25 -7 237 2 279 5 26 9 28 55 28 l49 0 0
35 0 35 110 0 c61 0 113 0 116 0 4 0 7 -25 8 -55 0 -30 5 -55 10 -55 5 0 8 27
7 60 -2 58 -2 60 23 60 24 0 26 -4 28 -47 1 -27 1 -60 0 -75 -1 -19 3 -28 13
-28 11 0 15 18 17 82 3 80 4 82 31 89 l27 7 0 -94 c0 -94 0 -94 25 -94 27 0
29 8 30 149 0 67 15 91 49 78 14 -5 16 -25 16 -132 0 -114 2 -125 18 -125 10
0 39 -7 64 -15 38 -14 48 -23 63 -58 9 -23 24 -55 32 -71 l15 -28 -38 6 c-22
3 -127 15 -234 27 -107 11 -235 26 -285 34 -55 9 -93 11 -99 5 -13 -13 7 -16
289 -45 138 -14 276 -29 309 -32 45 -5 60 -10 64 -25 4 -16 17 -18 148 -18 79
0 144 1 144 3 0 2 -13 30 -29 63 -34 69 -56 162 -48 195 4 13 23 51 44 84 l38
60 7 -55 c3 -30 6 -106 7 -167 1 -68 5 -113 11 -113 6 0 10 82 10 228 l-1 227
-25 -48 -25 -48 -47 27 c-26 15 -67 39 -92 54 -83 48 -474 539 -553 693 -22
43 -41 77 -42 75 -8 -9 170 -513 234 -662 12 -27 20 -50 18 -52 -2 -3 -36 3
-76 12 -40 9 -74 15 -76 12 -2 -2 2 -25 10 -51 14 -45 10 -63 -11 -49 -9 6
-45 218 -47 269 0 7 -6 14 -14 17 -14 6 -19 -71 -14 -206 3 -59 1 -68 -14 -68
-16 0 -17 7 -10 68 21 181 8 598 -20 653 -8 15 -16 38 -16 51 -1 13 -5 1 -9
-27 -20 -121 -111 -608 -116 -613 -7 -9 -114 23 -114 34 0 7 14 48 31 91 18
43 58 152 89 243 32 91 62 177 68 191 6 15 14 44 18 65 10 58 -13 30 -28 -34
-7 -29 -18 -52 -24 -52 -7 0 -14 -7 -18 -15 -3 -8 -17 -15 -32 -15 -15 0 -48
-12 -73 -27 -46 -26 -268 -176 -326 -218 -16 -12 -37 -20 -45 -17 -13 4 -13 3
-2 -10 9 -11 10 -18 2 -23 -5 -3 -10 -24 -10 -46 0 -22 -4 -38 -8 -35 -4 3 -8
-7 -8 -22 1 -15 -4 -26 -9 -25 -6 1 -12 -8 -13 -21 -2 -25 -23 -42 197 151 68
59 142 123 165 141 22 19 60 51 83 73 23 21 45 39 48 39 7 0 -23 -44 -52 -75
-154 -168 -165 -183 -249 -343 l-28 -53 -60 1 c-34 0 -70 -1 -81 -2 -11 -1
-35 -1 -54 0 -27 2 -32 5 -26 20 4 9 21 55 38 102 17 47 33 87 37 90 4 3 10
16 13 30 19 83 31 98 158 189 69 49 136 91 150 93 16 2 25 10 27 26 2 12 7 22
12 22 5 0 7 -7 4 -15 -4 -9 0 -15 10 -15 9 0 15 3 15 8 -4 21 3 24 16 6 14
-19 14 -19 15 3 0 27 18 40 26 19 9 -23 24 -20 24 4 0 11 5 20 10 20 6 0 8
-11 4 -26 -6 -24 -5 -25 15 -12 12 7 19 19 16 26 -3 8 -8 25 -11 38 -3 13 -9
24 -13 24 -4 0 -7 9 -8 20 -1 11 2 20 6 20 5 0 11 10 15 23 5 17 8 19 15 8 7
-11 22 -12 66 -7 67 8 86 22 74 54 -6 15 -5 21 1 17 6 -3 10 -2 10 4 0 5 -4
12 -10 16 -6 4 -6 15 0 33 10 25 9 26 -5 8 -8 -11 -15 -29 -15 -40 0 -18 -2
-19 -11 -6 -7 11 -8 6 -4 -19 8 -37 15 -36 -70 -15 -19 5 -25 3 -23 -7 4 -17
-32 -25 -42 -9 -4 7 -4 26 1 43 6 21 5 33 -3 38 -18 11 -1 39 19 33 11 -3 6 5
-12 20 -21 18 -25 26 -14 26 12 0 15 7 12 24 -4 19 0 25 21 30 16 4 24 11 20
17 -4 8 -8 8 -13 1 -8 -14 -28 -2 -32 20 -3 13 -8 15 -19 7 -11 -8 -12 -12 -2
-16 17 -7 15 -24 -3 -17 -8 4 -15 17 -15 31 0 14 4 21 10 18 6 -4 9 5 8 22 -4
67 2 93 21 93 20 0 31 -18 31 -52 0 -21 0 -21 21 -2 16 15 24 16 39 6 58 -36
95 32 44 82 -8 9 -11 16 -6 16 19 0 -1 52 -23 60 -26 10 -35 44 -35 139 l0 66
-57 25 c-31 14 -60 27 -65 28 -4 2 -8 -40 -8 -92 0 -94 -1 -97 -25 -106 -14
-5 -25 -15 -25 -22 0 -9 -3 -8 -10 2 -7 11 -10 12 -10 2 0 -8 9 -16 20 -19 18
-5 26 -35 21 -79 -1 -7 5 -14 14 -18 12 -4 15 -27 15 -125 0 -72 -5 -131 -12
-146 -8 -19 -9 -28 -1 -33 6 -4 13 -38 16 -77 3 -38 8 -80 12 -92 5 -14 3 -23
-4 -23 -5 0 -8 7 -5 15 4 10 0 15 -11 15 -9 0 -13 5 -9 11 12 20 -37 -2 -83
-37 -52 -40 -63 -41 -91 -11 -31 33 -44 75 -41 137 1 37 -2 54 -9 53 -7 -2
-12 3 -12 10 -1 6 -8 -1 -16 -16 -9 -16 -13 -35 -10 -43 12 -30 -15 -21 -68
23 -36 29 -55 51 -51 60 3 8 5 19 5 24 0 5 3 8 8 8 32 -5 52 3 52 21 0 11 -4
20 -10 20 -5 0 -10 7 -10 16 0 8 -4 12 -10 9 -5 -3 -10 -2 -10 3 0 12 38 22
56 15 8 -3 14 -11 14 -19 0 -19 -1 -19 125 25 109 38 109 38 75 48 -209 63
-224 70 -233 103 -6 24 7 34 48 37 17 1 71 10 120 21 l90 19 -59 17 c-33 10
-87 31 -120 46 -34 16 -119 56 -191 88 -71 33 -263 126 -426 206 -163 80 -300
146 -303 146 -3 0 -5 -163 -5 -362z m742 -165 c-7 -2 -21 -2 -30 0 -10 3 -4 5
12 5 17 0 24 -2 18 -5z m97 -13 c0 -5 -15 -10 -32 -10 -25 0 -29 -3 -18 -10 8
-5 11 -10 5 -10 -5 0 -17 4 -24 9 -12 8 -8 11 15 16 16 4 34 8 39 10 6 2 11 4
13 4 1 1 2 -3 2 -9z m-97 -7 c-7 -2 -19 -2 -25 0 -7 3 -2 5 12 5 14 0 19 -2
13 -5z m-453 -93 c8 -5 11 -10 5 -10 -5 0 -17 5 -25 10 -8 5 -10 10 -5 10 6 0
17 -5 25 -10z m100 -20 l25 -8 -25 0 c-14 0 -34 3 -45 8 l-20 9 20 -1 c11 0
31 -4 45 -8z m113 -30 c26 -7 47 -16 47 -21 0 -4 -19 -2 -41 6 -23 8 -50 15
-60 15 -10 0 -21 5 -25 11 -4 7 0 9 12 6 11 -3 40 -10 67 -17z m265 -78 c2 -7
-1 -12 -7 -12 -6 0 -11 5 -11 10 0 6 -6 10 -12 8 -23 -4 -138 24 -132 33 3 5
-4 9 -15 9 -11 0 -22 4 -25 9 -3 5 40 -4 96 -19 56 -15 104 -32 106 -38z m462
-32 c0 -5 -5 -10 -11 -10 -5 0 -7 5 -4 10 3 6 8 10 11 10 2 0 4 -4 4 -10z
m-860 -24 c19 -3 49 -10 67 -15 17 -5 34 -7 37 -5 4 2 3 0 -1 -6 -9 -10 -132
17 -148 33 -7 7 -7 8 0 4 6 -3 26 -8 45 -11z m250 -44 c0 -5 -7 -17 -16 -28
-14 -17 -15 -17 -10 -1 3 10 6 23 6 28 0 5 5 9 10 9 6 0 10 -4 10 -8z m590
-37 c0 -8 -2 -15 -4 -15 -2 0 -6 7 -10 15 -3 8 -1 15 4 15 6 0 10 -7 10 -15z
m-763 -71 c-3 -3 -12 -4 -19 -1 -8 3 -5 6 6 6 11 1 17 -2 13 -5z m789 -61 c-6
-15 -10 -13 -22 16 -19 45 -18 49 7 24 15 -14 19 -27 15 -40z m-76 -42 c-6
-12 -17 -21 -26 -21 -11 0 -9 6 8 24 27 27 34 26 18 -3z m-40 -76 c-7 -9 -15
-13 -17 -11 -7 7 7 26 19 26 6 0 6 -6 -2 -15z m-50 -27 c-19 -20 -20 -21 -14
-3 8 20 25 37 32 30 2 -2 -6 -14 -18 -27z m-40 18 c0 -3 -4 -8 -10 -11 -5 -3
-10 -1 -10 4 0 6 5 11 10 11 6 0 10 -2 10 -4z m-420 -79 c0 -20 -4 -23 -35
-19 -39 5 -48 28 -12 35 43 8 47 7 47 -16z m-76 -64 c18 -52 21 -110 6 -133
-7 -11 -13 -4 -28 31 -11 25 -23 59 -27 77 -3 17 -11 35 -17 38 -8 5 24 30 44
33 3 1 13 -20 22 -46z m-75 -100 c6 -76 14 -154 17 -174 l6 -35 -38 4 -37 5 6
131 c7 139 15 206 26 206 4 0 13 -62 20 -137z m161 37 c0 -5 -4 -10 -10 -10
-5 0 -10 5 -10 10 0 6 5 10 10 10 6 0 10 -4 10 -10z m2 -111 l-10 -44 0 65
c-1 51 2 60 10 44 6 -14 6 -36 0 -65z m-45 -41 c-3 -8 -6 -5 -6 6 -1 11 2 17
5 13 3 -3 4 -12 1 -19z m31 -280 c2 -97 -12 -88 -23 15 -6 55 -5 67 7 67 11 0
15 -18 16 -82z m449 25 c-4 -32 -22 -42 -24 -13 -1 11 2 18 8 15 5 -4 9 1 9 9
0 9 2 16 5 16 3 0 4 -12 2 -27z m-397 -72 c0 -5 -9 -19 -20 -32 l-21 -24 16
33 c15 31 25 41 25 23z m149 -181 c0 -23 -1 -23 -9 -5 -5 11 -9 29 -9 40 -1
17 1 17 9 5 5 -8 9 -26 9 -40z m51 -31 c0 -5 -4 -9 -10 -9 -5 0 -10 7 -10 16
0 8 5 12 10 9 6 -3 10 -10 10 -16z m-263 -56 c-4 -17 -4 -17 -12 0 -4 9 -4 25
0 35 8 16 8 16 12 0 3 -10 3 -26 0 -35z m-180 -189 c-3 -3 -12 -4 -19 -1 -8 3
-5 6 6 6 11 1 17 -2 13 -5z m506 -31 c-13 -2 -33 -2 -45 0 -13 2 -3 4 22 4 25
0 35 -2 23 -4z"/>
<path d="M7711 2965 c1 -33 4 -72 8 -87 l6 -27 47 29 c27 17 52 30 57 30 31 0
13 23 -41 56 -35 21 -66 43 -70 48 -4 6 -7 -16 -7 -49z"/>
<path d="M8220 2928 c-14 -5 -52 -18 -85 -28 -33 -10 -86 -28 -117 -39 -32
-12 -65 -23 -75 -25 -10 -1 -25 -6 -33 -9 -8 -3 -46 -14 -85 -23 -104 -25
-105 -26 -105 -90 0 -48 2 -55 16 -50 9 4 78 25 153 47 75 22 157 47 183 54
72 23 78 21 78 -25 0 -22 0 -43 1 -47 0 -5 -18 -13 -42 -19 -37 -9 -40 -12
-26 -25 14 -14 12 -16 -14 -16 -21 0 -26 3 -17 9 17 12 -87 1 -110 -12 -21
-11 -113 -36 -168 -45 -35 -5 -43 -11 -47 -33 -6 -29 1 -52 14 -52 5 0 65 16
133 35 69 19 133 35 143 35 11 0 25 6 32 13 10 8 12 8 7 0 -3 -6 -1 -15 5 -18
6 -4 8 -18 4 -33 -5 -22 -4 -24 9 -13 12 10 13 18 5 33 -6 11 -7 23 -3 26 4 4
9 1 11 -5 3 -7 11 -13 19 -13 8 0 14 -4 14 -10 0 -5 18 -10 39 -10 22 0 42 -5
44 -12 4 -10 8 -9 16 2 13 18 27 5 34 -30 2 -14 5 80 6 208 0 127 -2 232 -6
231 -5 0 -19 -5 -33 -11z"/>
<path d="M7442 2579 c2 -7 10 -15 17 -17 8 -3 12 1 9 9 -2 7 -10 15 -17 17 -8
3 -12 -1 -9 -9z"/>
<path d="M8035 2540 c-3 -5 -1 -10 4 -10 6 0 11 5 11 10 0 6 -2 10 -4 10 -3 0
-8 -4 -11 -10z"/>
<path d="M8010 2500 l-25 -8 28 -1 c15 -1 27 4 27 9 0 6 -1 10 -2 9 -2 -1 -14
-5 -28 -9z"/>
<path d="M7400 2480 c0 -5 5 -10 11 -10 5 0 7 5 4 10 -3 6 -8 10 -11 10 -2 0
-4 -4 -4 -10z"/>
<path d="M7384 2436 c3 -14 1 -37 -4 -52 -12 -31 -4 -46 13 -23 7 9 18 14 25
12 7 -3 12 4 12 16 0 12 -5 21 -11 21 -8 0 -7 5 2 16 10 13 10 17 -2 25 -27
17 -42 11 -35 -15z"/>
<path d="M7861 2449 c-24 -5 -47 -6 -51 -4 -4 3 -24 -2 -43 -10 -27 -11 -36
-21 -39 -45 -5 -36 -4 -36 92 -6 41 13 86 26 100 28 22 3 49 24 50 39 0 10
-35 6 -42 -5 -5 -8 -8 -7 -8 2 0 6 -3 12 -7 11 -5 -1 -28 -5 -52 -10z"/>
<path d="M7067 2426 c28 -24 35 -26 73 -17 58 13 58 17 -2 25 -29 3 -64 9 -78
13 -24 6 -23 5 7 -21z"/>
<path d="M7451 2404 c0 -11 3 -14 6 -6 3 7 2 16 -1 19 -3 4 -6 -2 -5 -13z"/>
<path d="M7343 2362 c1 -14 5 -18 11 -12 7 7 6 14 -1 21 -9 9 -12 7 -10 -9z"/>
<path d="M7380 2329 c0 -5 5 -7 10 -4 6 3 10 8 10 11 0 2 -4 4 -10 4 -5 0 -10
-5 -10 -11z"/>
<path d="M7798 2320 c-37 -10 -69 -15 -72 -12 -3 2 -10 -8 -16 -23 -6 -15 -8
-30 -6 -32 9 -10 155 31 160 44 3 7 0 13 -7 13 -7 0 -3 7 7 15 24 18 19 18
-66 -5z"/>
<path d="M6150 2306 c0 -27 -29 -44 -41 -24 -14 22 -23 -1 -9 -26 10 -20 10
-28 -4 -47 -12 -18 -16 -48 -16 -131 l0 -108 49 50 c27 28 51 50 54 50 2 0 7
-36 10 -80 5 -60 3 -88 -9 -116 -12 -28 -14 -53 -9 -98 16 -133 42 -138 44 -9
1 49 5 165 9 258 l7 170 43 3 44 3 -24 23 c-13 12 -45 31 -71 42 -30 12 -52
28 -58 42 -11 29 -19 28 -19 -2z"/>
<path d="M7340 2310 c-8 -5 -12 -12 -9 -15 4 -3 12 1 19 10 14 17 11 19 -10 5z"/>
<path d="M7767 2213 c-4 -3 -22 -8 -39 -10 -33 -3 -58 -25 -58 -49 0 -16 100
11 112 30 16 24 4 48 -15 29z"/>
<path d="M7686 2101 c-16 -3 -31 -12 -34 -18 -6 -20 27 -15 55 7 27 21 26 22
-21 11z"/>
<path d="M7655 2004 c179 -171 564 -484 595 -484 7 0 10 38 8 102 l-3 103
-145 87 c-157 96 -447 243 -495 253 -27 6 -24 0 40 -61z"/>
<path d="M8092 1995 c0 -16 2 -22 5 -12 2 9 2 23 0 30 -3 6 -5 -1 -5 -18z"/>
<path d="M8230 1940 c-12 -8 -11 -10 8 -10 12 0 22 5 22 10 0 13 -11 13 -30 0z"/>
<path d="M7502 1730 c0 -14 2 -19 5 -12 2 6 2 18 0 25 -3 6 -5 1 -5 -13z"/>
<path d="M7017 1710 c-19 -22 -22 -35 -7 -25 10 6 34 45 28 45 -2 0 -11 -9
-21 -20z"/>
<path d="M6955 1631 c-25 -11 -62 -51 -47 -51 6 0 16 9 23 21 7 14 17 19 30
16 12 -3 19 0 19 9 0 8 -1 14 -2 13 -2 0 -12 -4 -23 -8z"/>
<path d="M6143 1581 c-52 -26 -53 -27 -53 -71 0 -25 -3 -63 -7 -84 l-6 -39 24
16 c20 15 23 25 24 74 l0 58 43 15 c33 11 42 19 42 37 0 27 0 27 -67 -6z"/>
<path d="M6883 1553 c9 -2 23 -2 30 0 6 3 -1 5 -18 5 -16 0 -22 -2 -12 -5z"/>
<path d="M6080 1196 l0 -134 54 20 53 20 7 66 c11 127 14 120 -51 125 l-58 3
58 2 c43 2 57 6 57 17 0 12 -13 15 -60 15 l-60 0 0 -134z"/>
<path d="M6355 1320 c-12 -4 -15 -9 -7 -13 13 -9 72 -5 72 4 0 10 -44 16 -65
9z"/>
<path d="M6530 1310 c0 -5 6 -10 14 -10 8 0 18 5 21 10 3 6 -3 10 -14 10 -12
0 -21 -4 -21 -10z"/>
<path d="M6340 1253 c0 -21 -3 -56 -7 -77 l-6 -39 34 7 c46 9 59 30 59 93 l0
53 -40 0 c-40 0 -40 0 -40 -37z"/>
<path d="M7402 1240 c0 -14 2 -19 5 -12 2 6 2 18 0 25 -3 6 -5 1 -5 -13z"/>
<path d="M7313 1133 c9 -2 25 -2 35 0 9 3 1 5 -18 5 -19 0 -27 -2 -17 -5z"/>
<path d="M7318 1103 c12 -2 30 -2 40 0 9 3 -1 5 -23 4 -22 0 -30 -2 -17 -4z"/>
<path d="M7273 1073 c6 -10 264 -39 272 -31 3 3 -52 10 -122 17 -70 8 -134 16
-142 19 -8 3 -12 1 -8 -5z"/>
<path d="M7678 1073 c7 -3 16 -2 19 1 4 3 -2 6 -13 5 -11 0 -14 -3 -6 -6z"/>
<path d="M7758 1063 c7 -3 16 -2 19 1 4 3 -2 6 -13 5 -11 0 -14 -3 -6 -6z"/>
<path d="M7573 1033 c9 -2 25 -2 35 0 9 3 1 5 -18 5 -19 0 -27 -2 -17 -5z"/>
<path d="M7658 1023 c12 -2 32 -2 45 0 12 2 2 4 -23 4 -25 0 -35 -2 -22 -4z"/>
<path d="M7758 1013 c6 -2 18 -2 25 0 6 3 1 5 -13 5 -14 0 -19 -2 -12 -5z"/>
<path d="M6105 980 c17 -4 41 -8 55 -8 l25 0 -25 8 c-14 4 -38 8 -55 8 l-30 0
30 -8z"/>
<path d="M7270 927 c0 -18 63 -27 169 -26 l76 1 -65 13 c-122 25 -180 29 -180
12z"/>
<path d="M8824 3475 c-3 -8 1 -22 10 -30 13 -13 16 -14 16 -2 0 10 11 14 35
12 31 -1 52 14 38 29 -13 13 -94 6 -99 -9z"/>
<path d="M8945 3481 c-3 -5 -1 -12 4 -15 5 -3 11 1 15 9 6 16 -9 21 -19 6z"/>
<path d="M9020 3480 c0 -13 11 -13 30 0 12 8 11 10 -7 10 -13 0 -23 -4 -23
-10z"/>
<path d="M9118 3483 c6 -2 18 -2 25 0 6 3 1 5 -13 5 -14 0 -19 -2 -12 -5z"/>
<path d="M9633 3443 c-9 -37 -8 -52 1 -68 13 -20 8 -122 -8 -173 -8 -23 15
-62 36 -62 5 0 8 59 8 133 -2 143 -8 217 -19 217 -3 0 -12 -21 -18 -47z"/>
<path d="M9705 3457 c-11 -58 -4 -71 39 -77 45 -6 62 -30 21 -30 -15 0 -24 4
-20 10 3 6 -3 10 -13 10 -25 0 -30 -21 -27 -117 2 -43 4 -126 4 -184 l1 -106
24 4 c14 3 27 12 30 20 5 11 2 13 -10 9 -23 -9 -37 3 -23 20 12 14 34 20 26 7
-3 -5 8 -8 23 -9 16 -1 31 5 34 12 3 8 13 14 23 14 15 0 14 2 -4 15 -23 16
-21 45 3 45 7 0 11 6 8 13 -4 11 9 14 56 16 36 1 60 -3 60 -9 0 -16 46 -12 60
5 11 13 2 15 -66 16 -100 2 -107 1 -120 -17 -16 -20 -24 -17 -22 9 2 23 28 58
28 37 0 -5 5 -10 10 -10 21 0 10 39 -12 43 -20 4 -19 4 5 6 15 0 27 6 27 12 0
6 -6 9 -12 7 -7 -3 -19 2 -27 10 -12 11 -12 18 -3 33 8 12 8 19 2 19 -6 0 -8
13 -5 30 3 17 1 30 -5 30 -16 0 -12 30 5 36 8 4 15 12 15 20 0 14 17 18 53 15
9 -1 17 3 17 8 0 6 -14 11 -30 11 -27 0 -30 2 -24 25 l6 25 -75 0 -76 0 -6
-33z m119 8 c4 -10 -1 -15 -14 -15 -11 0 -20 7 -20 15 0 8 6 15 14 15 8 0 16
-7 20 -15z m-44 -55 c0 -5 -5 -10 -11 -10 -5 0 -7 5 -4 10 3 6 8 10 11 10 2 0
4 -4 4 -10z m10 -90 c0 -11 -7 -20 -15 -20 -27 0 -18 30 13 39 1 1 2 -8 2 -19z
m0 -40 c0 -5 -14 -10 -31 -10 -17 0 -28 4 -24 10 3 6 17 10 31 10 13 0 24 -4
24 -10z"/>
<path d="M9950 3478 c0 -9 -3 -23 -6 -32 -3 -9 -2 -16 4 -16 14 0 23 43 12 54
-7 7 -10 4 -10 -6z"/>
<path d="M10702 3483 l-32 -4 20 -30 c12 -16 17 -29 11 -29 -14 0 -15 -77 -1
-82 5 -1 11 -56 14 -122 2 -65 8 -122 13 -126 4 -5 44 -23 88 -40 44 -17 87
-38 96 -46 13 -12 18 -12 35 1 34 25 89 19 129 -16 19 -17 35 -37 35 -43 0 -7
23 -23 50 -36 47 -22 51 -23 63 -6 10 14 21 16 49 11 42 -8 68 -24 137 -87 47
-42 51 -49 41 -69 -10 -17 -9 -23 1 -30 12 -8 12 -10 0 -18 -9 -6 -10 -11 -2
-15 6 -4 9 -12 5 -17 -3 -5 10 -27 28 -49 19 -21 49 -69 67 -105 28 -56 33
-73 28 -110 -4 -24 -2 -47 2 -50 5 -3 17 -25 26 -49 15 -39 15 -47 2 -77 -8
-19 -19 -61 -24 -94 -6 -33 -17 -77 -26 -97 -15 -33 -15 -38 -1 -52 14 -14 13
-17 -11 -26 -14 -5 -31 -10 -36 -10 -9 0 -13 -21 -10 -55 1 -10 -1 -26 -5 -35
-5 -12 -8 -10 -15 8 -10 26 -36 25 -31 -2 4 -22 -21 -30 -50 -16 -22 12 -22
11 2 -12 14 -12 33 -34 42 -48 16 -25 15 -26 -46 -82 -61 -58 -110 -83 -143
-75 -16 4 -16 5 2 13 11 5 39 22 61 37 l42 28 -23 23 c-13 13 -36 48 -52 77
l-28 54 -3 -48 c-2 -27 2 -55 8 -62 22 -27 -39 -115 -81 -115 -26 0 -79 -30
-79 -45 0 -22 -57 -66 -93 -72 -34 -5 -36 -4 -46 33 -6 22 -11 45 -11 52 0 25
-17 11 -39 -34 -19 -37 -33 -50 -81 -73 -32 -16 -71 -32 -87 -36 -26 -7 -26
-8 -8 -16 14 -7 8 -7 -19 -3 -35 5 -37 4 -23 -10 8 -9 22 -16 30 -16 20 0 26
-9 20 -31 -3 -10 -14 -19 -24 -19 -12 0 -19 -7 -19 -19 0 -13 -10 -21 -32 -26
-33 -7 -33 -7 -8 -15 14 -4 304 -8 643 -9 l617 -2 0 1090 0 1091 -592 -2
c-326 0 -608 -3 -626 -5z"/>
<path d="M9528 3443 c6 -65 10 -70 11 -15 0 28 -3 52 -7 52 -4 0 -6 -17 -4
-37z"/>
<path d="M10140 3401 c0 -5 6 -13 13 -19 10 -8 13 -6 14 9 1 10 -5 19 -13 19
-8 0 -14 -4 -14 -9z"/>
<path d="M10205 3400 c-4 -6 3 -10 14 -10 25 0 27 6 6 13 -8 4 -17 2 -20 -3z"/>
<path d="M10147 3330 c3 -11 9 -17 14 -14 14 8 10 34 -5 34 -9 0 -12 -7 -9
-20z"/>
<path d="M10208 3343 c6 -2 18 -2 25 0 6 3 1 5 -13 5 -14 0 -19 -2 -12 -5z"/>
<path d="M10208 3323 c6 -2 18 -2 25 0 6 3 1 5 -13 5 -14 0 -19 -2 -12 -5z"/>
<path d="M8838 3302 c-17 -3 -18 -24 -18 -263 l0 -259 32 0 c56 0 198 -24 198
-33 0 -5 -15 -6 -32 -3 -44 8 -72 13 -140 21 l-58 7 0 -150 c0 -111 3 -152 13
-155 10 -4 10 -6 0 -6 -10 -1 -13 -123 -13 -576 l0 -575 393 0 392 1 -40 21
c-22 11 -55 21 -74 22 -31 1 -36 5 -43 35 -13 48 -5 63 27 51 33 -13 56 -35
47 -46 -4 -5 0 -3 8 3 8 6 32 13 53 17 l39 7 -7 -55 c-7 -52 -6 -56 13 -56 21
0 26 13 34 89 2 14 9 26 16 29 11 3 13 -9 10 -57 -2 -44 0 -61 10 -61 10 0 18
42 13 73 0 4 4 7 10 7 6 0 10 -10 9 -22 -4 -43 0 -58 14 -58 19 0 25 23 24 90
-1 49 1 55 20 58 15 2 22 10 22 26 0 18 -7 25 -32 30 -30 6 -32 8 -15 20 10 8
17 18 16 22 -1 5 1 29 5 54 3 25 8 134 9 243 2 230 2 229 88 220 32 -3 49 -2
49 6 0 6 -17 12 -37 12 l-38 2 35 8 c28 6 24 7 -23 5 -64 -4 -72 2 -69 50 2
18 -2 52 -7 76 -5 26 -5 64 0 98 5 30 10 79 9 108 0 60 4 62 82 32 101 -38
191 -17 173 39 -8 27 -32 39 -75 39 -31 -1 -55 3 -110 17 -8 2 -19 4 -23 4 -5
1 -6 5 -3 10 3 4 -6 7 -19 5 -14 -1 -25 3 -25 9 0 6 -7 2 -16 -9 -8 -10 -13
-14 -10 -8 6 13 -15 24 -45 24 -12 0 -16 5 -13 15 6 15 56 22 51 8 -2 -8 6
-13 21 -13 4 0 7 47 7 104 0 114 -10 142 -40 112 -9 -9 -13 -16 -8 -16 4 -1
-3 -10 -16 -20 l-23 -20 26 0 c16 0 25 -4 21 -10 -3 -5 -15 -10 -26 -10 -12 0
-19 -7 -19 -20 0 -12 7 -20 16 -20 10 0 14 6 10 15 -3 9 0 15 10 15 12 0 12
-4 4 -20 -6 -11 -17 -20 -25 -20 -24 0 -17 -20 10 -30 14 -5 25 -15 25 -21 0
-7 -9 -9 -25 -5 -19 5 -25 2 -25 -9 0 -25 -24 -28 -77 -10 -28 9 -59 18 -69
20 -10 2 -20 4 -21 5 -2 2 -6 3 -10 5 -5 1 -15 4 -23 7 -47 19 -87 28 -116 28
-19 0 -34 4 -34 9 0 4 -15 9 -32 9 -18 0 -36 1 -40 2 -14 4 -23 6 -73 14 -70
11 -94 17 -93 25 2 18 -3 31 -12 31 -5 0 -10 -9 -10 -20 0 -11 -5 -20 -11 -20
-6 0 -8 15 -4 44 7 44 -8 74 -18 36 -9 -36 -36 -13 -31 26 3 23 1 33 -6 29 -5
-3 -10 -18 -10 -33 0 -40 -37 -38 -49 3 -21 65 -23 132 -7 157 9 14 13 27 10
31 -11 10 7 48 19 40 28 -18 37 -11 37 30 0 38 1 39 14 21 8 -10 11 -21 6 -24
-4 -3 -2 -11 6 -18 12 -11 14 -10 14 5 0 15 2 16 10 3 7 -10 10 15 11 80 1 82
2 88 9 45 4 -27 6 -71 6 -96 -2 -33 2 -45 10 -42 6 2 10 14 7 26 -4 18 -3 19
6 7 8 -11 11 -1 11 43 0 37 4 56 10 52 24 -15 21 27 -3 51 -23 22 -36 26 -108
30 -54 3 -85 1 -89 -6 -5 -8 -12 -7 -23 4 -11 12 -17 13 -20 3 -4 -8 -8 -9
-14 -1 -11 14 -34 21 -55 16z m153 -55 c-8 -8 -11 -7 -11 4 0 20 13 34 18 19
3 -7 -1 -17 -7 -23z m-52 -202 c0 -94 -2 -115 -14 -115 -12 0 -15 21 -15 118
0 64 3 128 7 142 l7 25 7 -28 c4 -15 8 -79 8 -142z m68 78 c-2 -16 -4 -3 -4
27 0 30 2 43 4 28 2 -16 2 -40 0 -55z m-40 -25 c-3 -8 -6 -5 -6 6 -1 11 2 17
5 13 3 -3 4 -12 1 -19z m-73 -175 c3 -21 6 -51 6 -68 -1 -45 -16 -11 -25 53
-8 60 9 74 19 15z m55 -115 c-1 -31 -1 -31 -8 -8 -5 14 -6 28 -4 33 9 15 13 6
12 -25z m-69 -160 c0 -18 -2 -20 -9 -8 -6 8 -7 18 -5 22 9 14 14 9 14 -14z
m420 -39 c186 -32 219 -40 235 -55 8 -9 15 -11 15 -6 0 16 84 -9 98 -30 16
-21 32 -24 32 -4 0 9 7 12 20 9 15 -4 18 -11 14 -29 -5 -21 -2 -24 22 -25 l29
-2 -27 -4 c-26 -4 -28 -7 -28 -54 l0 -51 31 7 c22 5 29 4 25 -4 -4 -6 -18 -11
-32 -11 -21 0 -24 -5 -24 -35 0 -31 3 -35 27 -35 30 0 21 -15 -12 -22 -18 -4
-18 -6 5 -17 26 -12 41 -61 19 -61 -5 0 -7 -4 -4 -10 3 -5 -1 -10 -10 -10 -11
0 -15 5 -11 15 3 8 1 15 -4 15 -6 0 -10 -21 -10 -46 0 -27 4 -43 10 -39 6 3
10 1 10 -4 0 -6 -4 -11 -10 -11 -5 0 -10 -22 -10 -50 0 -45 2 -50 23 -50 16 0
19 -3 8 -9 -12 -8 -12 -10 0 -14 8 -2 4 -2 -8 -1 -12 2 -23 -2 -26 -9 -9 -26
6 -171 19 -185 18 -18 18 -36 0 -29 -16 6 -26 -13 -26 -49 0 -18 5 -24 21 -24
13 0 18 -4 13 -12 -5 -7 -7 -27 -5 -45 1 -18 -2 -33 -7 -33 -6 0 -9 18 -8 40
1 39 -7 53 -16 28 -4 -11 -3 -70 1 -102 0 -6 7 -2 14 9 13 17 14 17 20 -4 5
-19 1 -21 -34 -21 -37 0 -39 2 -39 31 l0 30 -29 -20 c-16 -12 -40 -21 -54 -21
-24 0 -26 4 -33 69 -6 61 -9 68 -25 64 -14 -4 -19 0 -19 15 0 11 8 22 20 25
11 3 20 12 20 21 0 23 -59 174 -71 181 -5 4 -9 19 -9 35 0 16 -6 35 -13 42 -8
7 -19 23 -26 36 -9 17 -21 22 -53 22 -52 0 -98 39 -98 81 0 15 -5 31 -12 35
-8 5 -9 0 -6 -14 4 -12 2 -22 -3 -22 -15 0 -26 34 -18 60 4 16 7 19 8 8 1 -19
17 -25 23 -8 2 7 15 6 36 -2 30 -12 35 -11 48 6 17 24 18 50 2 64 -7 5 -47 8
-90 6 -69 -3 -78 -1 -78 14 0 14 -2 15 -10 2 -12 -19 -18 -12 -21 25 -4 51 0
67 14 58 13 -8 37 -13 37 -8 0 2 -5 15 -11 29 -10 21 -14 23 -25 11 -8 -7 -22
-11 -33 -8 -10 3 -22 0 -25 -6 -10 -16 -26 -13 -26 5 0 14 -1 14 -16 0 -19
-19 -35 -12 -27 12 4 13 2 13 -10 -3 -13 -16 -16 -17 -20 -5 -10 30 -15 180
-6 180 5 0 9 10 9 23 0 18 2 19 10 7 5 -8 10 -10 10 -4 0 17 42 25 57 12 11
-8 12 -7 7 6 -8 20 4 19 206 -15z m-320 -14 c0 -19 -4 -35 -10 -35 -5 0 -10
16 -10 35 0 19 5 35 10 35 6 0 10 -16 10 -35z m767 -151 c-3 -3 -12 -4 -19 -1
-8 3 -5 6 6 6 11 1 17 -2 13 -5z m-620 -116 c-3 -8 -6 -5 -6 6 -1 11 2 17 5
13 3 -3 4 -12 1 -19z m636 5 c-7 -2 -21 -2 -30 0 -10 3 -4 5 12 5 17 0 24 -2
18 -5z m-3 -27 c0 -11 -19 -15 -25 -6 -3 5 1 10 9 10 9 0 16 -2 16 -4z m-897
-73 c-7 -2 -19 -2 -25 0 -7 3 -2 5 12 5 14 0 19 -2 13 -5z m337 -35 c0 -12 -1
-19 -3 -17 -1 2 -9 12 -16 22 -12 14 -11 17 3 17 10 0 16 -8 16 -22z m-51 -88
c-1 -42 -3 -49 -9 -30 -12 38 -12 119 0 100 5 -8 9 -40 9 -70z m31 40 c0 -5 6
-10 13 -10 7 0 18 -9 25 -21 9 -13 9 -18 2 -14 -7 4 -11 1 -9 -6 3 -28 -1 -38
-15 -33 -8 3 -12 13 -9 24 3 11 -2 27 -11 35 -18 19 -21 35 -6 35 6 0 10 -4
10 -10z m567 -6 c-3 -3 -12 -4 -19 -1 -8 3 -5 6 6 6 11 1 17 -2 13 -5z m-477
-76 c0 -6 -6 -5 -15 2 -8 7 -15 14 -15 16 0 2 7 1 15 -2 8 -4 15 -11 15 -16z
m178 -165 c5 -31 -24 -30 -63 2 l-30 25 45 -2 c38 -3 45 -6 48 -25z m-122 5
c4 -6 3 -8 -4 -4 -5 3 -13 0 -15 -6 -3 -8 -6 -6 -6 5 -1 19 14 23 25 5z m174
-97 c14 -27 13 -41 -5 -41 -13 0 -35 36 -35 56 0 13 31 1 40 -15z m-178 -13
c-6 -26 -18 -30 -32 -13 -10 12 -10 15 1 16 8 0 5 4 -6 9 -17 7 -15 9 11 7 25
-1 30 -5 26 -19z m128 7 c0 -13 -4 -14 -20 -5 -11 6 -20 13 -20 15 0 3 9 5 20
5 11 0 20 -7 20 -15z m-60 -25 c12 -8 11 -10 -7 -10 -12 0 -25 5 -28 10 -8 13
15 13 35 0z m90 -83 c0 -7 -9 -13 -20 -13 -23 0 -25 7 -8 24 13 13 28 7 28
-11z m260 -7 c0 -5 -4 -10 -10 -10 -5 0 -10 5 -10 10 0 6 5 10 10 10 6 0 10
-4 10 -10z m-210 -65 c0 -8 -4 -15 -10 -15 -5 0 -10 7 -10 15 0 8 5 15 10 15
6 0 10 -7 10 -15z m-86 -3 c2 -4 -4 -8 -15 -8 -10 0 -19 4 -19 8 0 4 6 8 14 8
8 0 17 -4 20 -8z m46 -42 c0 -5 -5 -10 -11 -10 -5 0 -7 5 -4 10 3 6 8 10 11
10 2 0 4 -4 4 -10z m-45 -70 c-3 -5 -10 -10 -16 -10 -5 0 -9 5 -9 10 0 6 7 10
16 10 8 0 12 -4 9 -10z m35 0 c0 -5 -5 -10 -11 -10 -5 0 -7 5 -4 10 3 6 8 10
11 10 2 0 4 -4 4 -10z"/>
<path d="M9533 2485 c0 -27 2 -38 4 -22 2 15 2 37 0 50 -2 12 -4 0 -4 -28z"/>
<path d="M9620 2343 c0 -104 3 -142 13 -146 10 -3 10 -11 0 -39 -16 -44 -18
-182 -2 -172 8 5 8 1 0 -14 -14 -26 -15 -116 -1 -107 31 19 40 68 46 242 6
197 -3 292 -35 344 l-21 34 0 -142z"/>
<path d="M9528 2413 c-2 -10 -1 -58 2 -108 l7 -90 1 108 c2 103 -1 127 -10 90z"/>
<path d="M9223 2325 c0 -22 2 -30 4 -17 2 12 2 30 0 40 -3 9 -5 -1 -4 -23z"/>
<path d="M9710 2210 c0 -5 4 -10 9 -10 6 0 13 5 16 10 3 6 -1 10 -9 10 -9 0
-16 -4 -16 -10z"/>
<path d="M9531 2184 c0 -11 3 -14 6 -6 3 7 2 16 -1 19 -3 4 -6 -2 -5 -13z"/>
<path d="M9642 1807 c-20 -21 -24 -38 -28 -113 l-4 -89 24 27 c18 20 26 44 31
91 4 35 5 73 3 86 l-3 23 -23 -25z"/>
<path d="M9530 3205 c0 -49 3 -86 6 -82 3 3 6 40 6 82 0 42 -3 79 -6 82 -3 4
-6 -33 -6 -82z"/>
<path d="M9910 3242 c-10 -11 -11 -17 -2 -20 17 -5 15 -29 -3 -36 -34 -13 -12
-26 46 -26 85 0 100 10 86 55 -7 25 -15 34 -26 31 -57 -16 -79 -17 -83 -3 -3
13 -5 13 -18 -1z"/>
<path d="M9180 3232 c0 -30 34 -27 37 3 3 20 3 20 -5 0 -9 -19 -9 -19 -20 0
-11 19 -11 19 -12 -3z"/>
<path d="M9870 3181 c0 -25 6 -27 13 -6 4 8 2 17 -3 20 -6 4 -10 -3 -10 -14z"/>
<path d="M9472 3160 c0 -14 2 -19 5 -12 2 6 2 18 0 25 -3 6 -5 1 -5 -13z"/>
<path d="M9152 3150 c0 -14 2 -19 5 -12 2 6 2 18 0 25 -3 6 -5 1 -5 -13z"/>
<path d="M9541 3094 c0 -11 3 -14 6 -6 3 7 2 16 -1 19 -3 4 -6 -2 -5 -13z"/>
<path d="M9620 3105 c0 -5 -3 -45 -5 -87 -4 -59 -1 -80 10 -92 19 -18 19 -26
1 -26 -10 0 -14 -15 -15 -57 0 -47 4 -60 24 -81 19 -19 22 -28 14 -38 -6 -7
-17 -10 -25 -7 -11 4 -14 -4 -14 -35 0 -29 5 -41 18 -45 9 -2 25 -8 36 -12 18
-8 18 -1 14 196 -5 198 -6 205 -31 249 -15 25 -27 41 -27 35z"/>
<path d="M10596 3010 c6 -6 38 -13 70 -15 58 -4 58 -4 14 5 -25 5 -56 12 -70
15 -18 5 -22 3 -14 -5z"/>
<path d="M9780 2980 c-13 -9 -7 -14 13 -11 4 0 7 -3 7 -9 0 -5 5 -10 10 -10 6
0 10 9 10 20 0 22 -16 26 -40 10z"/>
<path d="M10590 2960 c0 -5 9 -10 20 -10 11 0 23 0 27 -1 4 0 9 4 11 10 2 6
-10 11 -27 11 -17 0 -31 -4 -31 -10z"/>
<path d="M9536 2805 c-3 -9 -5 -44 -4 -78 l1 -62 7 75 c6 81 6 90 -4 65z"/>
<path d="M10265 2810 c-3 -5 1 -10 9 -10 9 0 16 5 16 10 0 6 -4 10 -9 10 -6 0
-13 -4 -16 -10z"/>
<path d="M9945 2790 c-4 -12 -5 -24 -2 -27 3 -2 8 5 12 17 4 12 5 24 2 27 -3
2 -8 -5 -12 -17z"/>
<path d="M9940 2720 c0 -24 15 -27 24 -4 9 22 8 24 -9 24 -8 0 -15 -9 -15 -20z"/>
<path d="M10543 2728 c-21 -28 -24 -38 -9 -32 14 5 30 33 23 41 -2 2 -9 -2
-14 -9z"/>
<path d="M9901 2681 c-18 -5 -25 -15 -28 -42 -3 -29 0 -35 17 -35 13 0 19 5
16 13 -3 8 2 13 12 13 23 0 42 19 42 42 0 19 -16 21 -59 9z m0 -34 c-10 -9
-11 -8 -5 6 3 10 9 15 12 12 3 -3 0 -11 -7 -18z"/>
<path d="M10490 2669 c0 -5 5 -7 10 -4 6 3 10 8 10 11 0 2 -4 4 -10 4 -5 0
-10 -5 -10 -11z"/>
<path d="M10232 2651 c-7 -4 -25 -6 -39 -3 -23 4 -25 2 -21 -22 3 -14 2 -26
-2 -26 -4 0 -10 -19 -12 -43 -8 -66 -32 -97 -78 -97 -24 0 -40 -5 -44 -15 -3
-9 0 -15 8 -15 7 0 35 -12 62 -26 46 -25 144 -57 151 -50 2 2 -22 23 -54 47
-49 37 -55 44 -36 47 12 2 35 -4 52 -12 18 -10 56 -16 96 -16 36 0 65 -4 65
-9 0 -5 -12 -23 -26 -40 -14 -17 -24 -31 -21 -31 33 0 113 -24 122 -37 13 -18
40 -9 28 10 -4 7 -8 15 -9 20 -1 4 -2 10 -4 15 -1 4 -2 39 -1 77 1 104 -19
122 -54 50 -9 -20 -23 -39 -30 -41 -8 -3 -42 9 -77 28 l-63 33 1 47 c0 31 6
54 18 67 15 17 16 23 6 36 -14 17 -20 18 -38 6z"/>
<path d="M10474 2604 c-4 -22 -11 -48 -17 -59 -7 -15 -7 -17 3 -9 13 12 34 94
26 101 -3 3 -8 -12 -12 -33z"/>
<path d="M9960 2565 c0 -8 5 -15 10 -15 6 0 10 7 10 15 0 8 -4 15 -10 15 -5 0
-10 -7 -10 -15z"/>
<path d="M11005 2570 c-3 -5 -1 -10 4 -10 6 0 11 5 11 10 0 6 -2 10 -4 10 -3
0 -8 -4 -11 -10z"/>
<path d="M11187 2524 c-4 -4 9 -25 29 -45 31 -31 35 -41 25 -53 -9 -11 -10
-20 -1 -36 9 -17 18 -20 53 -17 52 5 58 26 26 88 -21 42 -21 42 -34 20 -12
-23 -12 -23 -18 -2 -3 13 -13 21 -27 21 -13 0 -28 7 -34 16 -6 8 -15 12 -19 8z
m113 -130 c0 -8 -4 -12 -10 -9 -5 3 -10 10 -10 16 0 5 5 9 10 9 6 0 10 -7 10
-16z"/>
<path d="M10893 2447 c-28 -12 -29 -22 -5 -39 10 -7 35 -35 55 -61 41 -54 45
-50 18 22 -28 75 -42 90 -68 78z"/>
<path d="M11077 2319 c-35 -34 -44 -48 -33 -52 9 -4 25 8 42 31 15 20 32 40
37 43 5 4 8 11 6 15 -2 5 -26 -12 -52 -37z"/>
<path d="M11361 2330 c-20 -36 -18 -58 4 -42 14 10 35 71 26 77 -4 2 -18 -13
-30 -35z"/>
<path d="M11520 2312 c0 -6 9 -12 20 -15 11 -3 20 -3 20 -1 0 2 -9 8 -20 14
-11 6 -20 7 -20 2z"/>
<path d="M10057 2270 c-4 -14 -7 -44 -7 -68 0 -23 -7 -54 -17 -68 -9 -14 -17
-46 -18 -72 -1 -26 -5 -55 -10 -65 -9 -20 39 -97 61 -97 7 0 24 -10 37 -22 13
-13 32 -28 43 -34 15 -10 17 -14 7 -25 -7 -7 -13 -30 -13 -51 l0 -38 46 0 c52
0 141 -23 170 -44 18 -14 18 -15 -5 -40 -28 -30 -28 -31 22 -39 34 -5 37 -4
37 19 0 13 5 24 11 24 5 0 7 4 4 10 -3 6 1 7 9 4 19 -7 19 -4 6 31 -13 35 4
113 34 150 l24 30 21 -25 c41 -48 52 -80 50 -138 -1 -32 3 -67 9 -79 14 -25
16 -53 5 -53 -5 0 -25 5 -45 10 -30 9 -43 8 -65 -5 -27 -15 -23 -15 70 -13 53
2 97 2 97 1 0 -5 -112 -33 -134 -33 -14 0 -26 -4 -26 -9 0 -5 36 -7 80 -6 44
1 80 -2 80 -6 0 -5 -4 -9 -9 -9 -10 0 -23 -32 -26 -63 -1 -15 0 -15 14 -3 9 8
57 41 107 75 50 33 97 67 104 76 7 8 18 15 24 15 6 0 22 9 36 20 l25 19 -50
-13 c-27 -7 -68 -22 -90 -33 -38 -19 -134 -41 -107 -25 9 6 5 15 -14 33 -24
22 -25 29 -23 101 l3 76 -61 45 c-33 25 -63 51 -65 59 -4 10 -9 9 -24 -4 -23
-20 -147 -78 -167 -78 -8 0 -19 17 -25 38 -10 31 -9 39 3 48 14 10 13 13 -1
24 -24 21 -44 66 -44 102 0 31 4 36 65 66 l64 31 19 -27 c39 -56 66 -154 49
-171 -8 -8 -3 -11 16 -11 26 0 27 1 27 60 0 76 16 113 79 192 28 35 51 65 51
68 0 3 -16 13 -35 22 -33 17 -38 17 -97 -2 -35 -11 -86 -24 -114 -30 l-51 -11
31 -32 31 -32 -70 -6 c-65 -6 -72 -5 -97 19 -16 14 -28 38 -30 56 -3 30 -4 31
-57 31 -50 0 -55 2 -61 25 l-6 25 -7 -25z m141 -137 c2 -8 -5 -13 -20 -13 -34
0 -68 11 -68 22 0 14 83 5 88 -9z m31 -309 c-9 -11 -7 -14 9 -14 12 0 24 -4
27 -10 8 -13 -55 -13 -74 -1 -20 13 4 42 26 34 12 -5 14 -3 8 7 -5 9 -4 11 4
6 9 -6 9 -11 0 -22z"/>
<path d="M10195 1821 c-3 -5 -2 -12 3 -15 5 -3 9 1 9 9 0 17 -3 19 -12 6z"/>
<path d="M10973 2208 c-31 -91 -33 -108 -17 -101 27 10 13 -15 -21 -38 -49
-34 -43 -43 9 -15 25 13 47 21 50 18 3 -3 6 -23 6 -44 0 -33 -5 -41 -31 -56
-60 -34 -63 -38 -19 -34 24 3 44 10 47 19 4 10 16 12 48 7 l43 -6 -9 44 c-4
23 -8 46 -9 51 0 14 37 7 84 -17 40 -20 48 -21 55 -9 6 11 17 13 41 8 28 -6
31 -10 27 -34 -3 -14 -9 -35 -13 -46 -17 -49 15 5 36 60 13 33 34 82 47 108
20 40 22 54 14 77 -5 16 -7 38 -4 49 8 31 -26 27 -70 -6 -36 -28 -57 -67 -57
-108 0 -11 -16 -37 -37 -56 -37 -35 -37 -23 0 19 l21 22 -22 22 c-13 14 -22
17 -22 10 0 -7 -4 -10 -10 -7 -6 4 -10 -9 -10 -31 l0 -37 -52 6 c-39 5 -56 3
-69 -9 -16 -14 -18 -12 -29 41 -7 32 -9 78 -5 106 4 27 5 49 3 49 -2 0 -14
-28 -25 -62z m377 2 c0 -5 -4 -10 -10 -10 -5 0 -10 5 -10 10 0 6 5 10 10 10 6
0 10 -4 10 -10z"/>
<path d="M11547 2264 c-4 -4 -15 -7 -26 -8 -20 -1 -121 -110 -121 -129 0 -6
19 10 43 34 23 24 60 58 82 76 22 18 37 33 34 33 -3 0 -9 -3 -12 -6z"/>
<path d="M9860 2155 c0 -8 4 -15 10 -15 5 0 7 7 4 15 -4 8 -8 15 -10 15 -2 0
-4 -7 -4 -15z"/>
<path d="M10710 2163 c0 -5 5 -15 10 -23 8 -12 10 -11 10 8 0 12 -4 22 -10 22
-5 0 -10 -3 -10 -7z"/>
<path d="M11557 2153 c-10 -17 -37 -117 -32 -121 4 -5 35 61 49 106 7 20 -7
32 -17 15z"/>
<path d="M11510 2115 c-10 -12 -10 -15 4 -15 9 0 16 7 16 15 0 8 -2 15 -4 15
-2 0 -9 -7 -16 -15z"/>
<path d="M9948 2080 c-5 -33 6 -28 17 8 3 12 2 22 -3 22 -5 0 -12 -14 -14 -30z"/>
<path d="M11401 2044 c-7 -28 -27 -61 -52 -89 -24 -26 -36 -46 -29 -50 6 -3 8
-11 5 -16 -4 -5 -1 -9 4 -9 6 0 11 6 11 13 0 11 40 65 93 127 48 55 51 61 34
55 -8 -4 -18 -2 -22 4 -14 24 -33 9 -44 -35z"/>
<path d="M10778 2033 c7 -3 16 -2 19 1 4 3 -2 6 -13 5 -11 0 -14 -3 -6 -6z"/>
<path d="M9880 2015 c0 -8 5 -15 10 -15 6 0 10 7 10 15 0 8 -4 15 -10 15 -5 0
-10 -7 -10 -15z"/>
<path d="M9910 1990 c0 -16 2 -30 4 -30 2 0 6 14 8 30 3 17 1 30 -4 30 -4 0
-8 -13 -8 -30z"/>
<path d="M10600 1991 c0 -5 -19 -28 -42 -50 l-43 -40 66 22 67 22 -16 28 c-16
27 -32 36 -32 18z"/>
<path d="M10850 1966 c0 -8 4 -17 9 -20 5 -4 7 3 4 14 -6 23 -13 26 -13 6z"/>
<path d="M10706 1923 c-12 -77 -11 -78 55 -26 57 45 60 48 38 54 -13 4 -38 7
-55 8 -29 1 -32 -2 -38 -36z"/>
<path d="M9877 1943 c-4 -3 -7 -11 -7 -17 0 -6 5 -5 12 2 6 6 9 14 7 17 -3 3
-9 2 -12 -2z"/>
<path d="M10388 1913 c7 -3 16 -2 19 1 4 3 -2 6 -13 5 -11 0 -14 -3 -6 -6z"/>
<path d="M9877 1889 c-6 -22 18 -57 31 -45 3 4 0 11 -7 16 -8 4 -12 17 -8 29
3 12 2 21 -3 21 -4 0 -10 -10 -13 -21z"/>
<path d="M11096 1893 c-11 -11 -6 -23 9 -23 8 0 15 4 15 9 0 13 -16 22 -24 14z"/>
<path d="M11171 1837 c-24 -8 -38 -20 -48 -45 -8 -19 -13 -36 -11 -37 2 -2 28
19 58 46 57 51 57 54 1 36z"/>
<path d="M9906 1781 c-5 -7 -17 -11 -27 -8 -11 3 -19 2 -19 -3 0 -11 36 -19
50 -10 7 4 10 14 8 21 -4 11 -6 11 -12 0z"/>
<path d="M11055 1770 c-8 -13 15 -13 35 0 12 8 11 10 -7 10 -12 0 -25 -4 -28
-10z"/>
<path d="M10934 1745 c-11 -12 -26 -24 -34 -27 -10 -3 -9 -9 6 -26 25 -30 29
-28 43 16 7 20 15 43 17 50 9 19 -9 12 -32 -13z"/>
<path d="M11190 1750 c-8 -5 -27 -10 -41 -10 l-27 0 27 -29 26 -28 22 33 c31
45 28 57 -7 34z"/>
<path d="M11094 1710 c-5 -8 -26 -23 -46 -32 -21 -10 -38 -22 -38 -28 0 -13 1
-13 39 6 40 20 52 11 23 -16 -25 -24 -29 -60 -7 -60 8 0 15 5 15 10 0 6 12 29
27 51 17 25 23 43 16 47 -5 4 -12 14 -15 22 -4 13 -6 13 -14 0z"/>
<path d="M9851 1681 c-20 -13 -25 -51 -7 -51 15 0 30 16 39 43 7 19 -9 23 -32
8z"/>
<path d="M9897 1683 c-11 -10 -8 -43 3 -43 6 0 10 11 10 25 0 26 -2 29 -13 18z"/>
<path d="M9828 1562 c-22 -4 -22 -9 -3 -28 13 -14 16 -14 21 0 8 22 2 32 -18
28z"/>
<path d="M9901 1524 c0 -11 3 -14 6 -6 3 7 2 16 -1 19 -3 4 -6 -2 -5 -13z"/>
<path d="M9876 1479 c-11 -35 -15 -79 -7 -79 9 0 25 80 17 88 -3 3 -7 -1 -10
-9z"/>
<path d="M9850 1340 c-6 -11 -7 -20 -2 -20 6 0 12 9 15 20 3 11 3 20 1 20 -2
0 -8 -9 -14 -20z"/>
<path d="M9775 1320 c-3 -5 -1 -10 4 -10 6 0 11 5 11 10 0 6 -2 10 -4 10 -3 0
-8 -4 -11 -10z"/>
<path d="M8820 5050 c0 -28 7 -67 15 -88 13 -33 13 -35 0 -18 -13 18 -15 -30
-15 -437 l0 -457 94 0 95 0 -35 58 c-19 31 -41 79 -49 106 -16 53 -19 168 -6
201 5 12 6 -8 4 -46 -7 -83 16 -157 64 -210 39 -43 62 -52 39 -16 -49 77 -61
245 -23 338 17 40 21 63 15 84 -4 16 -5 48 -1 70 7 46 41 125 54 125 5 0 -1
-19 -14 -42 -20 -39 -22 -56 -21 -198 1 -124 4 -162 18 -188 9 -17 12 -32 7
-32 -15 0 -42 31 -57 65 l-13 30 0 -50 c-1 -60 18 -134 48 -193 12 -23 19 -47
16 -52 -3 -6 -8 -19 -10 -30 -3 -16 2 -20 26 -20 l29 0 0 383 c0 358 -1 383
-18 393 -28 18 -79 132 -93 207 -12 65 -13 67 -42 67 -28 0 -29 -1 -22 -37 7
-39 35 -100 66 -144 18 -26 18 -26 -8 -40 -34 -18 -53 -65 -53 -132 0 -68 14
-110 55 -166 l32 -44 -33 -29 c-18 -16 -36 -38 -39 -49 -6 -18 -9 -16 -27 17
-22 41 -18 77 13 110 19 20 19 21 -3 70 -19 40 -23 67 -23 146 0 84 3 100 22
126 l22 30 -24 68 c-24 69 -24 69 -64 72 l-41 3 0 -51z"/>
<path d="M9059 5080 c30 -25 41 -25 41 0 0 16 -7 20 -32 20 l-33 -1 24 -19z"/>
<path d="M9140 4891 l0 -209 46 -51 c25 -28 63 -60 85 -73 21 -12 39 -25 39
-30 0 -12 -28 -21 -67 -21 -20 0 -33 -5 -33 -13 0 -7 -6 -15 -12 -17 -7 -3 3
-6 22 -7 19 -1 29 -4 23 -7 -18 -7 -16 -23 3 -23 9 0 18 -8 20 -18 4 -14 14
-16 52 -14 35 2 43 0 32 -7 -12 -9 -11 -11 9 -11 23 0 23 -1 8 -18 -10 -10
-17 -25 -17 -33 1 -9 10 -4 25 14 13 15 28 27 34 27 5 0 7 9 4 20 -4 14 0 20
11 20 10 0 13 -6 9 -15 -5 -13 -2 -14 21 -4 29 14 34 29 9 29 -9 0 -24 6 -32
14 -9 8 -25 16 -36 18 -15 2 -20 -2 -19 -20 0 -16 -4 -21 -13 -17 -8 3 -19 5
-24 5 -5 0 -9 5 -9 10 0 6 7 10 15 10 11 0 14 9 13 32 -3 30 -1 32 33 33 20 1
48 8 61 17 13 8 57 19 97 23 l73 7 72 72 c91 91 149 137 211 169 28 14 59 33
70 42 24 20 -93 -42 -193 -103 -40 -24 -101 -56 -135 -71 -89 -40 -296 -115
-302 -109 -3 3 -13 58 -22 122 -14 100 -14 119 -3 126 14 9 216 60 235 60 5 0
-11 -10 -35 -22 -58 -30 -61 -44 -9 -53 84 -14 338 30 449 79 51 22 37 20
-122 -19 -174 -43 -252 -53 -273 -35 -8 7 -15 16 -15 19 0 4 33 17 73 28 114
34 148 42 212 49 l60 7 -45 14 c-25 7 -70 15 -100 18 -60 4 -170 39 -324 104
-145 60 -136 67 -136 -96 0 -117 9 -216 35 -368 4 -26 3 -25 -9 7 -21 54 -35
165 -42 343 l-7 155 -64 0 -63 0 0 -209z m245 96 c75 -30 161 -46 248 -47 77
0 99 -12 55 -29 -41 -15 -189 -31 -290 -31 l-98 0 0 71 c0 64 2 70 18 64 9 -4
40 -17 67 -28z"/>
<path d="M10579 5084 c5 -11 22 -32 36 -49 l27 -30 -25 45 c-14 24 -30 46 -37
48 -9 3 -9 0 -1 -14z"/>
<path d="M10640 5058 c5 -24 6 -46 4 -50 -3 -4 7 -25 21 -48 l25 -40 113 0
113 0 36 -48 c33 -44 39 -48 68 -44 l33 5 -27 16 c-14 8 -26 19 -26 23 0 5 48
8 106 8 l106 0 52 -37 c28 -21 53 -40 56 -43 3 -3 11 -6 19 -8 7 -1 28 -14 46
-27 17 -14 35 -25 39 -25 4 0 14 -7 22 -15 17 -16 10 -40 -8 -29 -6 4 -9 3 -6
-2 3 -5 -3 -17 -12 -27 -13 -14 -20 -15 -26 -6 -5 8 -3 10 7 4 8 -5 11 -5 7 0
-4 4 -3 14 3 21 8 9 4 21 -12 43 -19 26 -29 31 -66 31 -47 0 -48 -2 -33 -31 8
-14 21 -19 55 -19 48 0 63 -11 40 -30 -10 -9 -15 -9 -15 -1 0 21 -16 11 -17
-11 -2 -18 0 -20 7 -8 5 8 10 13 11 10 0 -3 2 -13 4 -23 2 -13 -1 -17 -11 -13
-8 3 -13 2 -11 -2 3 -4 -6 -18 -18 -31 l-23 -24 -19 34 c-18 33 -19 34 -86 34
-37 0 -67 -3 -67 -7 0 -4 8 -23 17 -43 17 -35 17 -35 80 -35 l63 0 -11 -26
c-5 -15 -7 -29 -5 -32 3 -2 8 7 12 21 3 15 39 56 83 94 95 85 101 91 101 96 0
3 -42 30 -92 60 -145 86 -137 74 -78 135 28 29 52 52 54 52 1 0 52 -50 113
-112 l111 -111 24 24 c22 22 53 58 229 262 33 37 59 70 59 72 0 3 -49 5 -109
5 l-110 0 -28 -51 c-26 -48 -30 -50 -63 -46 -246 29 -340 42 -340 47 0 3 19
16 43 27 l42 22 -356 0 -356 1 7 -42z"/>
<path d="M9080 5026 c-7 -14 -10 -32 -7 -40 9 -22 -13 -20 -29 2 -24 31 -17
-37 10 -94 39 -85 46 -78 46 45 0 61 -1 111 -3 111 -2 0 -9 -11 -17 -24z"/>
<path d="M9623 5040 c66 -42 310 -102 422 -103 85 -1 103 3 126 31 23 30 27
28 31 -14 l3 -36 165 1 c90 1 166 3 168 5 2 2 -4 29 -13 60 l-16 56 -202 0
c-111 0 -314 3 -452 6 -190 4 -246 3 -232 -6z"/>
<path d="M10150 4935 c-10 -13 -9 -15 9 -15 12 0 21 6 21 15 0 8 -4 15 -9 15
-5 0 -14 -7 -21 -15z"/>
<path d="M10042 4911 c-9 -5 -4 -8 16 -7 17 1 28 4 25 9 -6 9 -25 9 -41 -2z"/>
<path d="M10634 4844 c3 -9 6 -20 6 -25 0 -5 23 -9 50 -9 44 0 52 -3 62 -25
18 -40 78 -25 78 19 0 39 -39 56 -126 56 -65 0 -75 -2 -70 -16z"/>
<path d="M11170 4842 c0 -5 -25 -7 -55 -7 -60 2 -60 2 -45 -26 7 -13 7 -19 0
-19 -5 0 -10 6 -10 13 0 8 -4 7 -10 -3 -8 -13 -13 -13 -31 -2 -24 15 -22 11
13 -40 19 -27 22 -28 115 -28 52 0 93 3 91 8 -41 92 -68 134 -68 104z"/>
<path d="M11019 4668 c-43 -57 -52 -74 -20 -38 31 34 55 70 48 70 -2 0 -14
-14 -28 -32z"/>
<path d="M10900 4672 c0 -8 -17 -12 -46 -12 -38 0 -45 -3 -42 -17 5 -25 105
-32 114 -8 4 9 0 24 -10 33 -10 10 -16 12 -16 4z"/>
<path d="M11316 4617 c3 -10 9 -15 12 -12 3 3 0 11 -7 18 -10 9 -11 8 -5 -6z"/>
<path d="M10922 4536 l-20 -34 -119 -5 c-65 -2 -329 -5 -588 -6 -641 -2 -849
-12 -750 -37 15 -4 38 -1 51 5 26 11 44 7 44 -10 0 -5 -7 -9 -15 -9 -9 0 -19
-8 -22 -17 -10 -27 -54 -62 -82 -65 -25 -3 -26 -6 -29 -75 l-3 -72 53 -3 c44
-2 53 -6 50 -20 -3 -16 8 -18 106 -18 137 0 162 -5 201 -40 28 -26 31 -27 31
-9 0 16 7 19 46 19 27 0 43 4 39 10 -8 12 5 13 24 1 9 -6 12 -23 10 -55 -3
-32 0 -46 8 -46 9 0 13 19 13 63 l0 62 -97 1 c-54 1 -125 6 -158 11 l-60 10
105 4 c58 2 125 1 150 0 25 -2 113 -4 197 -5 l152 -1 73 -72 73 -73 471 0 470
0 35 36 34 36 -95 90 c-58 55 -94 97 -92 107 2 10 0 12 -5 4 -5 -7 -53 32
-141 118 -73 71 -134 129 -136 129 -2 0 -13 -15 -24 -34z m-1313 -110 c9 -11
8 -15 -5 -20 -27 -10 -96 -7 -89 4 4 6 16 8 27 4 13 -4 18 -2 14 4 -5 9 6 15
35 21 4 0 12 -5 18 -13z m1434 -111 c37 -25 69 -50 72 -56 4 -5 -106 -9 -284
-9 -160 0 -291 2 -291 4 0 2 18 15 39 29 38 26 39 26 57 6 14 -16 31 -19 105
-19 48 0 90 4 93 9 13 20 -25 30 -117 32 -87 1 -99 4 -112 23 -8 11 -15 25
-15 30 0 5 77 7 193 3 l193 -5 67 -47z m-1420 -122 c-13 -2 -35 -2 -50 0 -16
2 -5 4 22 4 28 0 40 -2 28 -4z m220 -40 c-7 -2 -19 -2 -25 0 -7 3 -2 5 12 5
14 0 19 -2 13 -5z"/>
<path d="M10954 4284 c3 -9 6 -18 6 -20 0 -2 18 -4 40 -4 38 0 40 2 30 20 -14
26 -86 30 -76 4z"/>
<path d="M11256 4419 c-15 -39 -25 -74 -23 -76 3 -2 16 29 31 68 15 39 25 74
23 76 -3 2 -16 -29 -31 -68z"/>
<path d="M9193 4409 c3 -9 0 -22 -6 -28 -8 -8 -8 -11 0 -11 17 0 25 32 12 44
-9 8 -10 7 -6 -5z"/>
<path d="M12480 4093 l0 -318 58 -3 c83 -3 201 -21 220 -32 14 -8 12 -9 -10
-10 -16 0 -28 -4 -28 -9 0 -21 13 -41 26 -41 8 0 14 -4 14 -10 0 -5 18 -10 40
-10 22 0 40 5 40 10 0 6 8 10 19 10 13 0 20 -9 25 -30 3 -16 10 -30 16 -30 6
0 18 -6 25 -14 12 -11 10 -17 -11 -35 -17 -15 -32 -20 -42 -15 -16 6 -16 7 1
11 28 7 20 22 -10 19 -16 -2 -92 -4 -170 -5 l-142 -1 -4 -42 -4 -43 -1 43 c-1
23 -6 42 -12 42 -5 0 -10 9 -10 21 0 13 -4 18 -12 13 -8 -5 -9 -2 -5 9 3 10 2
17 -3 17 -5 0 -11 17 -13 38 -2 20 -4 -211 -5 -515 -2 -433 1 -552 11 -556 9
-4 9 -6 0 -6 -9 -1 -12 -77 -13 -308 l0 -308 100 2 100 2 0 -29 0 -30 -98 0
c-90 0 -98 -2 -99 -20 -1 -11 1 -21 5 -24 4 -2 88 -7 187 -10 99 -3 235 -9
301 -12 l121 -6 24 41 c20 36 25 39 31 24 7 -14 7 -13 4 5 -5 27 81 201 120
243 18 19 24 36 24 71 0 52 -3 50 114 63 l59 7 -7 -49 c-4 -26 -11 -75 -16
-108 -13 -97 -95 -244 -156 -282 -27 -16 29 -18 579 -14 l227 1 0 129 0 129
-41 44 c-22 23 -55 61 -72 82 l-31 39 72 -6 72 -5 0 347 c0 264 -3 350 -12
360 -10 11 -10 13 0 7 8 -5 12 0 12 16 0 15 -12 31 -38 48 -20 13 -54 37 -74
53 -21 16 -38 26 -38 22 0 -3 -10 3 -22 15 -25 23 -44 26 -51 8 -3 -7 -6 6 -6
29 -1 39 -4 44 -38 58 -81 34 -83 33 -83 -25 0 -28 -4 -60 -10 -70 -14 -26 8
-40 87 -55 74 -14 83 -10 83 35 l0 24 22 -21 c19 -20 20 -24 8 -54 -19 -45
-15 -73 30 -237 22 -78 40 -148 40 -154 0 -7 -13 -8 -37 -3 -42 8 -89 7 -115
-1 -13 -4 -18 0 -18 13 -1 14 -4 13 -15 -7 -24 -42 -19 -60 15 -60 17 0 30 -4
30 -10 0 -5 6 -10 14 -10 7 0 16 -8 19 -17 2 -10 8 -26 12 -37 7 -16 5 -17
-11 -9 -20 11 -144 5 -144 -6 0 -3 26 -7 58 -9 62 -3 100 -27 89 -56 -8 -20
-52 -12 -82 14 -36 31 -48 35 -36 11 6 -11 9 -31 6 -44 -6 -22 -3 -25 35 -31
31 -5 43 -12 50 -32 17 -43 13 -47 -38 -41 -58 7 -169 60 -134 65 12 2 22 9
22 15 1 60 13 255 16 266 3 8 13 12 28 9 21 -4 26 0 34 31 6 20 22 77 36 126
14 50 26 93 26 96 0 12 -52 29 -90 29 -22 0 -40 5 -40 11 0 11 88 7 108 -5 16
-10 15 9 -3 44 -14 28 -50 48 -62 36 -4 -3 4 -18 18 -33 19 -20 13 -18 -25 10
-29 22 -60 37 -77 37 -29 0 -79 -19 -79 -29 1 -3 28 -23 60 -43 l60 -37 0
-130 0 -129 -47 14 c-82 24 -104 36 -94 48 5 6 10 68 10 138 l2 128 -36 17
c-19 9 -34 22 -31 29 6 16 22 108 41 234 9 58 18 120 21 138 3 17 2 32 -1 32
-12 0 -105 -93 -105 -105 0 -11 -100 -62 -155 -79 -19 -5 -20 -12 -15 -112 l5
-106 -35 6 -35 5 33 -21 c21 -13 36 -17 40 -11 5 6 33 8 77 4 l69 -6 -3 -145
c-1 -80 -6 -148 -9 -151 -8 -7 -121 -42 -194 -60 -54 -13 -62 -24 -21 -27 41
-3 103 -51 136 -104 16 -26 33 -45 37 -43 5 3 6 -3 3 -14 -7 -26 15 -36 36
-17 16 15 22 14 76 -8 33 -13 61 -29 63 -35 4 -11 -82 -107 -109 -122 -13 -7
-30 1 -71 34 -29 23 -64 47 -77 53 -16 7 -44 51 -92 143 l-69 132 0 115 0 114
-70 0 -69 0 1 -35 c1 -19 5 -32 10 -29 4 3 8 0 8 -5 0 -6 14 -11 31 -11 31 0
31 -1 23 -32 -4 -18 -8 -60 -8 -93 l-1 -60 35 3 35 3 3 -138 c2 -114 6 -140
19 -150 19 -15 19 -15 -25 -37 -19 -10 -32 -20 -29 -22 3 -3 20 2 39 11 l33
16 -25 -20 c-37 -31 -68 -36 -89 -17 -11 10 -25 16 -33 15 -7 -1 -24 -1 -37 0
-22 1 -23 4 -17 48 5 39 3 50 -15 70 -32 33 -12 53 55 54 l51 1 -43 15 c-35
12 -49 13 -69 4 -24 -11 -25 -10 -19 11 4 13 9 37 13 53 7 33 24 50 34 34 4
-7 9 -4 12 5 4 9 3 15 -1 15 -35 -6 -121 4 -136 16 -18 13 -17 16 9 92 49 143
48 136 17 128 -30 -7 -25 2 10 19 29 14 40 86 13 86 -22 0 -72 -27 -78 -42 -3
-7 -6 -3 -6 10 -1 13 -5 20 -11 17 -6 -4 -10 9 -10 32 0 29 6 42 23 52 19 12
20 12 11 0 -14 -17 -24 -69 -14 -69 4 0 14 8 21 17 10 11 10 14 2 9 -8 -4 -13
-1 -13 9 0 9 5 13 10 10 6 -3 10 1 10 9 0 9 4 16 9 16 5 0 7 -9 4 -20 -5 -17
0 -20 27 -20 32 0 33 1 26 38 -3 20 -6 45 -6 56 0 18 -1 18 -27 0 -34 -22
-241 -124 -253 -124 -4 0 28 70 72 156 l79 156 84 0 84 0 31 49 c36 56 115
123 176 149 27 12 43 26 47 42 3 12 16 75 28 138 14 73 28 119 38 127 9 6 53
35 98 63 l82 52 118 -57 c65 -31 170 -81 235 -112 l116 -57 -5 -50 c-5 -52 2
-92 31 -158 15 -35 15 -37 -1 -31 -10 3 0 -12 22 -35 22 -22 50 -43 63 -47
l22 -6 0 134 0 134 -32 10 -33 10 33 13 32 12 0 149 c0 93 -4 149 -10 149 -5
0 -10 14 -10 31 0 26 -2 29 -14 20 -9 -8 -29 -10 -50 -7 -31 5 -36 3 -36 -14
0 -11 -4 -20 -10 -20 -5 0 -10 22 -10 49 l0 48 -62 0 c-76 -1 -138 20 -138 46
0 11 7 18 18 16 9 -1 31 0 47 1 30 2 30 2 5 11 -19 6 59 3 100 -4 19 -4 126
16 137 25 9 7 13 7 13 -1 0 -6 5 -11 10 -11 6 0 10 48 10 125 l0 125 -810 0
-810 0 0 -317z m1498 70 c-10 -2 -28 -2 -40 0 -13 2 -5 4 17 4 22 1 32 -1 23
-4z m-301 -29 c-3 -3 -12 -4 -19 -1 -8 3 -5 6 6 6 11 1 17 -2 13 -5z m-110
-60 c-3 -3 -12 -4 -19 -1 -8 3 -5 6 6 6 11 1 17 -2 13 -5z m193 -4 c0 -5 -9
-10 -20 -10 -11 0 -20 5 -20 10 0 6 9 10 20 10 11 0 20 -4 20 -10z m180 -40
c0 -5 -4 -10 -10 -10 -5 0 -10 5 -10 10 0 6 5 10 10 10 6 0 10 -4 10 -10z
m-895 -392 c-9 -6 -19 -7 -22 -4 -4 3 -1 6 6 6 7 0 9 4 6 10 -4 6 1 7 11 3 15
-6 15 -7 -1 -15z m-30 -28 c-3 -5 0 -10 7 -10 10 0 13 -25 13 -106 0 -95 -2
-108 -19 -118 -11 -6 -40 -23 -65 -38 -25 -16 -49 -28 -53 -28 -4 0 -8 17 -8
38 0 20 -5 55 -11 77 -25 95 -28 88 51 137 44 28 67 48 59 51 -8 3 -4 6 9 6
13 1 20 -3 17 -9z m-155 -70 c0 -5 -7 -10 -16 -10 -8 0 -12 5 -9 10 3 6 10 10
16 10 5 0 9 -4 9 -10z m-25 -48 c-8 -8 -25 10 -19 20 4 6 9 5 15 -3 4 -7 6
-15 4 -17z m603 -382 c-2 -7 -10 1 -17 16 -12 27 -11 28 4 12 10 -9 16 -21 13
-28z m-656 -207 c2 -38 1 -72 -3 -76 -3 -4 -27 -14 -53 -22 l-46 -14 0 58 c0
56 1 58 43 88 23 17 45 32 49 32 3 1 8 -29 10 -66z m1212 42 c11 -8 18 -17 15
-19 -2 -2 -15 4 -28 15 -27 22 -15 26 13 4z m-421 -168 c8 -5 5 -7 -8 -5 -17
3 -20 12 -22 58 l-1 55 9 -50 c6 -27 16 -53 22 -58z m-126 -124 c-3 -10 -5 -4
-5 12 0 17 2 24 5 18 2 -7 2 -21 0 -30z m183 -80 c-1 -91 -2 -96 -16 -78 -22
28 -12 175 12 175 2 0 4 -44 4 -97z m-859 -152 c-33 -60 -61 -119 -61 -130 0
-12 -6 -21 -12 -21 -10 0 -13 31 -12 123 l0 122 70 10 c38 6 71 10 73 8 2 -1
-24 -51 -58 -112z m489 -25 c0 -2 -7 -6 -15 -10 -8 -3 -15 -1 -15 4 0 6 7 10
15 10 8 0 15 -2 15 -4z m-163 -92 c-3 -3 -12 -4 -19 -1 -8 3 -5 6 6 6 11 1 17
-2 13 -5z m423 -9 c0 -8 -2 -15 -4 -15 -2 0 -6 7 -10 15 -3 8 -1 15 4 15 6 0
10 -7 10 -15z m183 -3 l38 -7 -93 -97 c-51 -54 -97 -98 -102 -98 -5 0 1 12 15
26 14 15 23 35 21 48 -2 17 3 25 17 29 18 4 21 13 21 56 0 57 2 58 83 43z
m-708 -89 l34 -61 -38 -41 c-34 -37 -42 -41 -86 -41 l-49 0 29 -30 28 -29 -27
-36 c-15 -19 -29 -35 -30 -35 -2 0 -3 77 -2 170 l1 171 53 -3 53 -3 34 -62z
m105 -91 c0 -5 -9 -17 -20 -27 -20 -18 -20 -17 -20 8 0 20 5 27 20 27 11 0 20
-4 20 -8z m641 -25 c-8 -8 -11 -7 -11 4 0 20 13 34 18 19 3 -7 -1 -17 -7 -23z
m-1 -57 c-6 -12 -9 -29 -5 -38 5 -13 4 -14 -6 -5 -9 9 -9 19 1 43 7 17 15 29
17 26 3 -2 -1 -14 -7 -26z m124 -86 c3 -8 2 -12 -4 -9 -6 3 -10 10 -10 16 0
14 7 11 14 -7z"/>
<path d="M9236 4385 c-3 -9 0 -15 9 -15 9 0 12 6 9 15 -4 8 -7 15 -9 15 -2 0
-5 -7 -9 -15z"/>
<path d="M9215 4314 c-16 -22 -22 -33 -13 -26 8 7 22 10 30 7 20 -8 71 13 63
25 -3 5 -15 10 -25 10 -10 0 -20 5 -22 11 -2 6 -17 -6 -33 -27z"/>
<path d="M9280 4292 c-57 -38 -73 -52 -57 -52 9 0 22 6 29 13 7 7 29 14 48 16
43 4 46 6 30 26 -15 18 -19 18 -50 -3z"/>
<path d="M11880 4234 c-33 -13 -33 -14 -5 -8 17 3 34 10 40 15 11 11 8 11 -35
-7z"/>
<path d="M11738 4198 c5 -5 16 -8 23 -6 8 3 3 7 -10 11 -17 4 -21 3 -13 -5z"/>
<path d="M9990 4105 l0 -35 75 0 c61 0 77 3 82 16 13 35 -11 49 -86 52 l-71 3
0 -36z"/>
<path d="M9489 4114 c0 -11 -2 -29 -3 -41 -3 -23 -2 -23 136 -23 131 0 138 1
138 20 0 38 -45 55 -162 59 -100 3 -108 2 -109 -15z"/>
<path d="M13491 3823 c-1 -39 3 -74 8 -77 5 -4 12 -28 16 -56 4 -27 12 -53 18
-58 18 -13 138 -64 142 -60 2 1 -33 57 -78 123 -44 66 -86 138 -93 160 l-13
40 0 -72z"/>
<path d="M13414 3508 l-19 -23 23 19 c21 18 27 26 19 26 -2 0 -12 -10 -23 -22z"/>
<path d="M13635 3500 c-10 -16 26 -62 44 -55 39 15 70 16 104 1 l37 -15 -15
-42 c-23 -64 -20 -86 16 -105 l32 -16 -7 31 c-3 17 -9 45 -13 63 -4 23 -3 29
6 24 26 -17 71 -90 71 -118 0 -15 5 -28 10 -28 6 0 22 -11 36 -25 26 -26 74
-44 74 -27 0 25 -105 204 -143 244 -43 45 -122 78 -189 78 -31 0 -60 -4 -63
-10z"/>
<path d="M13374 3458 l-19 -23 23 19 c21 18 27 26 19 26 -2 0 -12 -10 -23 -22z"/>
<path d="M13324 3398 c-52 -58 -80 -93 -61 -79 19 15 101 111 95 111 -2 0 -17
-15 -34 -32z"/>
<path d="M12850 3234 c0 -14 4 -23 10 -19 6 3 10 15 10 26 0 10 -4 19 -10 19
-5 0 -10 -12 -10 -26z"/>
<path d="M13152 3236 c-16 -18 -16 -18 5 -7 12 6 24 11 28 11 3 0 5 -27 3 -61
l-3 -61 -53 -3 -54 -4 7 41 c6 36 5 40 -10 35 -9 -4 -19 -7 -21 -7 -2 0 -4
-20 -4 -45 0 -33 -4 -45 -14 -45 -16 0 -49 -40 -41 -49 3 -2 15 0 28 6 71 33
147 57 179 58 l38 0 0 78 0 78 -35 -3 c-20 -1 -43 -11 -53 -22z"/>
<path d="M12880 3239 c0 -5 5 -7 10 -4 6 3 10 8 10 11 0 2 -4 4 -10 4 -5 0
-10 -5 -10 -11z"/>
<path d="M13124 3035 c-23 -14 -44 -32 -48 -40 -7 -19 -2 -19 33 0 41 21 98
25 118 8 16 -13 14 -14 -23 -10 -44 5 -124 -23 -124 -43 0 -6 25 -10 60 -10
48 0 74 7 121 31 l60 30 -23 18 c-63 49 -112 53 -174 16z"/>
<path d="M13867 2858 c-13 -81 -13 -96 -1 -115 8 -13 11 -23 7 -23 -5 0 1 -6
11 -12 15 -8 21 -8 24 0 2 7 8 9 14 6 6 -4 8 1 4 12 -3 11 -13 64 -22 119 -9
55 -17 101 -19 103 -1 1 -9 -39 -18 -90z"/>
<path d="M13015 2660 c-3 -5 3 -10 14 -10 12 0 21 5 21 10 0 6 -6 10 -14 10
-8 0 -18 -4 -21 -10z"/>
<path d="M13415 2470 c-3 -5 -1 -10 4 -10 6 0 11 5 11 10 0 6 -2 10 -4 10 -3
0 -8 -4 -11 -10z"/>
<path d="M13047 2433 c-12 -11 -7 -19 13 -20 11 -1 20 4 20 13 0 14 -21 19
-33 7z"/>
<path d="M14076 2199 c-6 -32 -1 -49 15 -49 5 0 9 18 9 40 0 47 -15 53 -24 9z"/>
<path d="M13800 1775 c-157 -7 -438 -18 -625 -25 -187 -7 -360 -14 -385 -15
-25 -1 -105 -3 -177 -4 l-133 -1 0 -210 0 -210 248 0 c136 0 258 3 271 7 23 6
23 7 5 14 -12 5 7 8 49 8 65 1 67 2 55 21 -7 11 -21 20 -30 20 -10 0 -18 5
-18 10 0 6 5 10 10 10 6 0 10 6 10 14 0 8 5 16 11 18 6 2 -30 4 -81 4 -71 0
-95 3 -104 15 -6 9 -19 20 -28 25 -12 7 3 9 50 6 37 -2 105 3 151 11 74 13
104 14 235 1 83 -7 187 -18 231 -24 44 -5 148 -17 230 -25 83 -9 183 -20 223
-25 110 -15 102 -20 102 65 l0 75 -237 -4 c-136 -3 -225 -1 -208 4 32 9 240
57 368 85 l77 17 0 64 c0 35 -3 63 -7 63 -5 -1 -136 -7 -293 -14z"/>
<path d="M12918 1463 c6 -2 18 -2 25 0 6 3 1 5 -13 5 -14 0 -19 -2 -12 -5z"/>
<path d="M8820 390 l0 -390 205 0 c159 0 205 3 205 13 0 7 21 18 48 25 47 12
54 14 82 25 8 3 42 10 75 16 122 22 300 51 313 51 8 0 12 -20 12 -65 0 -39 4
-65 11 -65 7 0 9 69 7 221 -2 179 -1 215 9 192 7 -16 12 -78 13 -149 l0 -121
50 -7 50 -7 0 -59 c0 -52 12 -84 23 -63 7 16 -13 329 -23 346 -8 13 -7 17 4
17 25 0 34 -24 46 -125 7 -55 14 -103 17 -108 2 -4 38 -7 79 -7 l74 0 0 -65
c0 -36 4 -65 9 -65 10 0 25 523 16 566 l-6 29 15 -32 c11 -23 16 -75 17 -180
2 -82 4 -170 7 -196 4 -46 5 -48 31 -43 14 3 44 8 66 11 l40 6 29 -60 c20 -43
33 -59 47 -58 17 1 17 3 4 22 -16 22 -45 83 -45 95 0 11 83 22 103 14 11 -4
17 -1 17 9 0 9 4 18 9 22 13 7 9 -48 -4 -57 -6 -4 -2 -8 8 -8 16 0 21 10 18
36 -1 7 5 14 14 18 8 3 15 2 15 -3 0 -4 23 -3 50 3 35 7 53 7 61 -1 16 -16
-67 -89 -118 -104 -74 -20 -57 -37 57 -56 19 -3 38 -11 42 -17 5 -7 70 -12
193 -14 l185 -4 0 391 0 391 -1090 0 -1090 0 0 -390z m1642 49 c12 -80 9 -201
-4 -197 -9 3 -15 42 -18 126 -3 79 -1 121 5 119 6 -2 13 -24 17 -48z m-1136
-237 c14 -55 17 -82 9 -82 -22 0 -35 24 -35 65 0 22 -4 55 -9 73 -8 25 -7 32
2 29 7 -2 21 -40 33 -85z m-91 -72 c45 -17 47 -19 20 -20 l-30 -1 25 -14 c14
-8 34 -14 45 -15 13 0 7 -6 -20 -20 -21 -11 -39 -19 -40 -17 -1 1 -16 24 -33
50 -45 67 -44 68 33 37z"/>
<path d="M11560 755 c0 -21 5 -25 28 -25 25 0 33 -8 57 -57 16 -32 34 -61 39
-65 6 -4 13 -39 17 -78 3 -39 8 -73 11 -75 3 -3 17 -1 31 4 16 6 29 7 32 1 11
-18 21 -210 11 -207 -6 2 -32 46 -59 98 -27 52 -57 103 -67 114 -21 24 -70
100 -87 135 -9 20 -12 -22 -12 -212 -1 -228 0 -237 19 -243 11 -3 22 -18 26
-33 3 -15 7 -36 9 -47 3 -11 -5 -30 -17 -42 l-21 -23 122 0 123 0 167 153 c92
83 247 224 344 311 169 152 177 160 172 190 -3 17 -9 51 -13 76 -5 32 -13 46
-26 48 -14 3 -17 -2 -14 -21 2 -20 -10 -37 -64 -86 l-66 -61 -11 50 c-6 28
-11 67 -11 85 0 26 -4 35 -16 35 -15 0 -16 -11 -10 -98 6 -83 4 -101 -9 -112
-21 -17 -24 -13 -41 61 -8 34 -18 68 -23 73 -5 6 -12 26 -16 44 -6 28 -10 32
-40 32 -31 0 -34 -3 -40 -40 -4 -22 -11 -40 -15 -40 -5 0 -14 18 -20 40 -9 33
-15 40 -35 40 -21 0 -25 -5 -25 -30 0 -16 -4 -30 -9 -30 -5 0 -14 14 -21 30
-10 24 -19 30 -41 30 -23 0 -29 -4 -29 -22 0 -13 -4 -29 -9 -37 -7 -12 -13 -7
-27 22 -11 23 -25 37 -36 37 -15 0 -18 -9 -18 -57 0 -32 3 -74 6 -94 l6 -36
31 29 c17 15 35 28 39 28 5 0 8 -41 8 -90 0 -88 -1 -90 -20 -80 -11 6 -34 38
-50 71 -19 37 -40 63 -55 69 -31 12 -43 36 -53 102 l-7 53 -59 3 c-52 3 -58 1
-52 -14 6 -17 6 -17 -12 -1 -26 24 -42 21 -42 -8z m600 -52 c0 -5 7 -44 14
-88 17 -92 11 -114 -14 -58 -9 21 -29 49 -44 62 -30 28 -34 65 -8 80 20 12 52
14 52 4z m-156 -74 c8 -39 6 -116 -3 -148 -6 -23 -7 -22 -23 15 -50 121 -52
127 -28 146 32 26 47 22 54 -13z m100 -76 c8 -52 8 -113 -1 -113 -5 0 -21 -11
-37 -25 -19 -16 -32 -22 -36 -15 -6 9 -6 73 -1 122 1 11 52 68 61 68 4 0 10
-17 14 -37z m-220 -120 c3 -21 6 -64 6 -96 l0 -59 -27 34 c-15 18 -30 35 -33
38 -4 4 -17 29 -38 72 -3 9 57 48 74 48 6 0 14 -17 18 -37z m-189 -75 c2 -13
9 -51 15 -86 6 -35 14 -70 17 -78 10 -26 -13 -14 -60 32 -63 61 -69 89 -28
126 38 34 49 35 56 6z"/>
<path d="M12220 764 c0 -17 22 -14 28 4 2 7 -3 12 -12 12 -9 0 -16 -7 -16 -16z"/>
<path d="M12340 761 c0 -11 -5 -21 -11 -23 -8 -3 -8 -15 0 -46 7 -23 14 -42
17 -42 3 0 13 9 22 21 24 29 18 109 -9 109 -12 0 -19 -7 -19 -19z"/>
<path d="M12590 768 c0 -7 11 -85 25 -173 13 -88 36 -243 51 -345 15 -102 31
-191 36 -197 6 -7 26 -15 45 -19 23 -4 33 -11 29 -20 -8 -21 18 -17 48 7 23
18 36 21 77 16 47 -6 66 4 33 17 -13 5 -15 15 -9 51 3 25 3 81 0 123 l-7 78
-28 -4 c-21 -3 -28 1 -33 17 -8 31 -45 41 -78 22 -22 -13 -24 -17 -13 -29 8
-7 14 -19 14 -25 0 -7 -5 -4 -11 5 -9 16 -12 16 -43 -3 l-34 -20 -5 23 c-3 13
-13 69 -22 124 l-17 102 27 41 c23 34 33 41 59 41 37 -1 66 -20 66 -46 0 -10
14 -33 32 -51 31 -32 31 -34 19 -69 -7 -19 -11 -37 -9 -39 1 -2 19 -5 38 -7
44 -4 51 19 20 75 -20 36 -22 48 -16 123 3 47 3 109 0 139 l-7 55 -143 0
c-109 0 -144 -3 -144 -12z m132 -594 c7 -15 7 -27 -1 -40 -10 -18 -10 -18 -11
2 0 12 -2 37 -5 55 -3 19 -3 27 1 19 3 -8 10 -25 16 -36z"/>
<path d="M13810 770 c0 -11 -84 -239 -211 -577 -38 -101 -69 -185 -69 -187 0
-3 128 -5 285 -6 l285 0 0 390 0 390 -114 0 c-106 0 -115 -1 -130 -22 l-17
-23 6 23 c5 17 2 22 -14 22 -12 0 -21 -5 -21 -10z m30 -65 c0 -8 -4 -15 -10
-15 -5 0 -7 7 -4 15 4 8 8 15 10 15 2 0 4 -7 4 -15z m-14 -41 c-3 -9 -6 -18
-6 -20 0 -2 -4 -4 -9 -4 -5 0 -7 9 -4 20 3 11 10 20 15 20 6 0 7 -7 4 -16z
m-21 -44 c3 -5 1 -10 -4 -10 -6 0 -11 5 -11 10 0 6 2 10 4 10 3 0 8 -4 11 -10z
m-12 -32 c-4 -7 -8 -16 -8 -20 0 -11 -15 -22 -15 -10 0 19 12 42 22 42 5 0 6
-6 1 -12z m-43 -113 c-6 -15 -13 -26 -16 -23 -2 3 0 18 6 33 6 15 13 26 16 23
2 -3 0 -18 -6 -33z m-15 -45 c3 -5 1 -10 -4 -10 -6 0 -11 5 -11 10 0 6 2 10 4
10 3 0 8 -4 11 -10z m-15 -35 c0 -8 -4 -15 -10 -15 -5 0 -7 7 -4 15 4 8 8 15
10 15 2 0 4 -7 4 -15z m-10 -32 c0 -5 -5 -15 -10 -23 -8 -12 -10 -11 -10 8 0
12 5 22 10 22 6 0 10 -3 10 -7z m-32 -74 c-6 -16 -12 -28 -14 -26 -5 5 13 57
20 57 3 0 0 -14 -6 -31z m-14 -54 c-4 -8 -10 -15 -15 -15 -4 0 -6 7 -3 15 4 8
10 15 15 15 4 0 6 -7 3 -15z m-43 -100 c-11 -24 -21 -52 -21 -60 0 -8 -4 -15
-10 -15 -8 0 -2 20 37 118 3 7 8 11 11 8 2 -3 -5 -26 -17 -51z"/>
<path d="M12468 437 c-30 -35 -32 -44 -19 -99 9 -37 8 -37 -12 -23 -40 28 -55
19 -157 -98 l-24 -28 117 3 c64 2 117 -1 117 -5 0 -4 -26 -19 -57 -33 -32 -14
-95 -43 -140 -65 -89 -43 -111 -47 -120 -23 -5 13 -9 12 -30 -8 -14 -13 -29
-31 -34 -40 -9 -17 4 -18 204 -18 l215 0 11 28 c6 15 21 41 32 57 l20 30 -4
-40 c-2 -22 -7 -48 -11 -58 -7 -15 -2 -17 45 -17 48 0 55 3 65 25 11 23 10 25
-22 31 -19 3 -40 4 -48 1 -12 -5 -13 -1 -7 17 5 13 5 29 -1 39 -5 10 -6 26 -3
37 5 15 2 20 -13 20 -17 0 -24 18 -52 138 -18 75 -35 142 -39 149 -4 7 -16 0
-33 -20z m12 -193 c0 -2 -19 -4 -42 -3 -35 1 -38 2 -18 8 23 7 60 4 60 -5z"/>
<path d="M10426 63 c-11 -11 -6 -23 9 -23 8 0 15 4 15 9 0 13 -16 22 -24 14z"/>
<path d="M9350 20 c0 -19 6 -20 118 -19 99 2 108 3 57 9 -33 3 -70 12 -82 18
-12 7 -38 12 -57 12 -29 0 -36 -4 -36 -20z"/>
<path d="M10375 20 l-90 -18 165 0 165 -1 -75 19 c-41 11 -75 19 -75 18 0 0
-40 -9 -90 -18z"/>
<path d="M10038 3 c12 -2 32 -2 45 0 12 2 2 4 -23 4 -25 0 -35 -2 -22 -4z"/>
</g>
</svg>
